<?xml version="1.0" encoding="UTF-8"?>
<svg version="1.1" xmlns="http://www.w3.org/2000/svg" width="500" height="500">
<path d="M0 0 C0.85053955 0.30079971 1.7010791 0.60159943 2.57739258 0.91151428 C4.35649055 1.54320089 6.13455942 2.17779291 7.91162109 2.81518555 C10.64125618 3.79096746 13.37696301 4.7482226 16.11328125 5.70507812 C17.84675356 6.32309964 19.57984124 6.94220129 21.3125 7.5625 C22.13218262 7.84697495 22.95186523 8.13144989 23.79638672 8.42454529 C25.77355584 9.14422266 27.70546882 9.98595252 29.625 10.84765625 C30.12 12.33265625 30.12 12.33265625 30.625 13.84765625 C28.975 14.50765625 27.325 15.16765625 25.625 15.84765625 C25.625 16.50765625 25.625 17.16765625 25.625 17.84765625 C23.25 20.47265625 23.25 20.47265625 20.625 22.84765625 C19.965 22.84765625 19.305 22.84765625 18.625 22.84765625 C18.25375 23.80671875 18.25375 23.80671875 17.875 24.78515625 C16.625 26.84765625 16.625 26.84765625 14.91796875 27.578125 C9.56014474 28.20792033 3.10052874 25.56266173 -1.26953125 22.53515625 C-2.625 21.22265625 -2.625 21.22265625 -4.375 18.84765625 C-4.375 18.18765625 -4.375 17.52765625 -4.375 16.84765625 C-5.035 17.17765625 -5.695 17.50765625 -6.375 17.84765625 C-6.065625 18.61078125 -5.75625 19.37390625 -5.4375 20.16015625 C-4.69606407 22.03555302 -4.01271783 23.93450277 -3.375 25.84765625 C-1.21203526 26.76850572 -1.21203526 26.76850572 1.375 27.34765625 C5.22001117 28.38878392 8.32635221 29.5386028 11.625 31.84765625 C9.98321735 36.62375123 7.35953298 40.64148529 4.625 44.84765625 C-1.57594949 44.21166143 -8.02262142 42.27131903 -12.4375 37.72265625 C-13.375 35.84765625 -13.375 35.84765625 -13.375 33.84765625 C-14.365 34.34265625 -14.365 34.34265625 -15.375 34.84765625 C-15.00350211 38.19113725 -13.59700353 40.29622556 -11.18359375 42.609375 C-7.34831434 45.23525744 -2.77745324 46.4675527 1.625 47.84765625 C1.04392368 51.60795475 -0.02699496 54.37800657 -1.9375 57.66015625 C-2.39253906 58.45035156 -2.84757812 59.24054688 -3.31640625 60.0546875 C-3.66574219 60.64636719 -4.01507813 61.23804688 -4.375 61.84765625 C-7.71680548 60.87431485 -11.04782155 59.86983089 -14.375 58.84765625 C-15.32375 58.55890625 -16.2725 58.27015625 -17.25 57.97265625 C-20.08324859 56.47270112 -21.53784725 54.43327864 -23.375 51.84765625 C-23.230625 52.42515625 -23.08625 53.00265625 -22.9375 53.59765625 C-22.41666667 55.68098958 -21.89583333 57.76432292 -21.375 59.84765625 C-20.83359375 59.97011719 -20.2921875 60.09257812 -19.734375 60.21875 C-16.96214603 60.95770507 -14.31635583 61.91691779 -11.625 62.91015625 C-10.14773437 63.45349609 -10.14773437 63.45349609 -8.640625 64.0078125 C-7.51914063 64.42353516 -7.51914063 64.42353516 -6.375 64.84765625 C-6.82863171 66.43234302 -7.28811452 68.01535549 -7.75 69.59765625 C-8.00523437 70.479375 -8.26046875 71.36109375 -8.5234375 72.26953125 C-9.2959934 74.60846197 -10.21125676 76.68208187 -11.375 78.84765625 C-16.54761921 78.31983796 -20.77761618 77.32317061 -25.375 74.84765625 C-27.3125 72.16015625 -27.3125 72.16015625 -28.375 69.84765625 C-29.365 70.17765625 -30.355 70.50765625 -31.375 70.84765625 C-28.49542889 76.03961023 -25.73073184 78.13759746 -20.125 80.22265625 C-19.4753125 80.48175781 -18.825625 80.74085938 -18.15625 81.0078125 C-16.56910926 81.63800074 -14.97288972 82.24524328 -13.375 82.84765625 C-13.93815479 86.62024658 -14.68243272 90.12115883 -15.9375 93.72265625 C-16.20691406 94.50382812 -16.47632813 95.285 -16.75390625 96.08984375 C-16.95886719 96.66992188 -17.16382813 97.25 -17.375 97.84765625 C-23.57646655 97.04746702 -29.64497092 94.79948393 -33.8125 90.09765625 C-34.328125 89.35515625 -34.84375 88.61265625 -35.375 87.84765625 C-36.035 87.84765625 -36.695 87.84765625 -37.375 87.84765625 C-35.33658383 92.23809108 -33.86017447 95.20420535 -29.2734375 97.19140625 C-26.91977668 97.96378275 -24.56560699 98.73461026 -22.2109375 99.50390625 C-19.375 100.84765625 -19.375 100.84765625 -18.38671875 102.61328125 C-18.37093427 105.62285465 -19.02395576 108.19581344 -19.8125 111.09765625 C-20.09996094 112.1753125 -20.38742188 113.25296875 -20.68359375 114.36328125 C-20.91175781 115.183125 -21.13992187 116.00296875 -21.375 116.84765625 C-32.53389691 113.79250195 -32.53389691 113.79250195 -36.375 110.84765625 C-36.375 110.18765625 -36.375 109.52765625 -36.375 108.84765625 C-37.035 108.84765625 -37.695 108.84765625 -38.375 108.84765625 C-39.365 107.85765625 -39.365 107.85765625 -40.375 106.84765625 C-41.035 106.84765625 -41.695 106.84765625 -42.375 106.84765625 C-40.0164951 111.2846609 -37.83001291 114.22831622 -33.1171875 116.234375 C-30.79315477 116.92136929 -28.45545901 117.56410556 -26.10546875 118.15625 C-23.375 118.84765625 -23.375 118.84765625 -22.375 119.84765625 C-22.27572714 121.80391555 -22.24530271 123.76388534 -22.25 125.72265625 C-22.24613281 127.32753906 -22.24613281 127.32753906 -22.2421875 128.96484375 C-22.375 131.84765625 -22.375 131.84765625 -23.375 134.84765625 C-29.21270258 134.25197231 -35.21477037 133.47079223 -39.125 128.72265625 C-39.74375 127.79453125 -39.74375 127.79453125 -40.375 126.84765625 C-41.365 126.51765625 -42.355 126.18765625 -43.375 125.84765625 C-41.29853968 130.5422622 -39.83911831 133.01094245 -35.0625 135.09765625 C-33.50374846 135.69093332 -31.94071 136.27299441 -30.375 136.84765625 C-28.065 137.83765625 -25.755 138.82765625 -23.375 139.84765625 C-22.715 145.45765625 -22.055 151.06765625 -21.375 156.84765625 C-28.13007713 155.72181006 -28.13007713 155.72181006 -31.43359375 154.54296875 C-32.14966797 154.28902344 -32.86574219 154.03507813 -33.60351562 153.7734375 C-34.69696289 153.37705078 -34.69696289 153.37705078 -35.8125 152.97265625 C-36.53759766 152.71613281 -37.26269531 152.45960938 -38.00976562 152.1953125 C-41.35221895 151.00007762 -44.61469056 149.74321008 -47.87109375 148.32421875 C-50.4634304 147.23179595 -52.92855567 146.31921483 -55.6015625 145.48828125 C-56.3234375 145.25882813 -57.0453125 145.029375 -57.7890625 144.79296875 C-59.26575026 144.32856871 -60.74772341 143.8806596 -62.234375 143.44921875 C-67.86656283 141.61219691 -70.62080916 139.08982826 -73.375 133.84765625 C-74.51953125 131.046875 -74.51953125 131.046875 -75.1875 128.53515625 C-75.42082031 127.69339844 -75.65414062 126.85164062 -75.89453125 125.984375 C-76.375 123.84765625 -76.375 123.84765625 -76.375 121.84765625 C-72.73829236 122.29296739 -69.42728428 122.83054503 -65.9375 123.97265625 C-61.6003873 125.037912 -58.74285448 124.61394651 -54.375 123.84765625 C-54.375 122.52765625 -54.375 121.20765625 -54.375 119.84765625 C-55.24125 120.19828125 -56.1075 120.54890625 -57 120.91015625 C-64.20062892 122.91033095 -70.65260654 119.3890489 -77.375 116.84765625 C-77.375 111.56765625 -77.375 106.28765625 -77.375 100.84765625 C-75.456875 101.50765625 -73.53875 102.16765625 -71.5625 102.84765625 C-65.32389705 104.7903791 -59.86487735 105.31586383 -53.375 104.84765625 C-53.375 103.52765625 -53.375 102.20765625 -53.375 100.84765625 C-54.5196875 101.22664063 -55.664375 101.605625 -56.84375 101.99609375 C-61.76003158 103.22516414 -65.21664264 102.18072062 -69.875 100.47265625 C-70.96554688 100.10140625 -70.96554688 100.10140625 -72.078125 99.72265625 C-73.85027187 99.11639548 -75.6136644 98.48464412 -77.375 97.84765625 C-77.47277722 92.02991153 -76.97451449 87.44595698 -75.375 81.84765625 C-72.24211984 82.29521056 -69.4203304 82.83126015 -66.4375 83.91015625 C-61.9563408 85.28193968 -56.7952489 85.71776155 -52.375 83.84765625 C-51.88 82.36265625 -51.88 82.36265625 -51.375 80.84765625 C-51.94605469 81.05003906 -52.51710937 81.25242187 -53.10546875 81.4609375 C-61.26432856 83.78277519 -66.88718021 81.34510186 -74.375 77.84765625 C-73.82354729 72.60885547 -72.94577907 67.87414928 -71.375 62.84765625 C-64.94916268 63.60363711 -64.94916268 63.60363711 -61.875 64.91015625 C-57.09297457 66.70341578 -52.25010133 66.029499 -47.375 64.84765625 C-47.375 63.85765625 -47.375 62.86765625 -47.375 61.84765625 C-47.87 62.01265625 -48.365 62.17765625 -48.875 62.34765625 C-56.76661406 63.92597906 -62.21456008 62.13441556 -69.375 58.84765625 C-67.83230076 54.12699658 -66.29705381 49.43101533 -64.375 44.84765625 C-63.72273438 45.05261719 -63.07046875 45.25757813 -62.3984375 45.46875 C-54.95481292 47.76331864 -49.18853815 49.25409312 -41.375 47.84765625 C-41.375 46.52765625 -41.375 45.20765625 -41.375 43.84765625 C-42.426875 44.34265625 -42.426875 44.34265625 -43.5 44.84765625 C-49.76484562 47.02673299 -53.86712809 45.45535775 -59.6171875 42.72265625 C-60.19726562 42.43390625 -60.77734375 42.14515625 -61.375 41.84765625 C-59.91467505 36.53738371 -57.39179014 32.38435593 -54.375 27.84765625 C-53.73433594 28.04101562 -53.09367187 28.234375 -52.43359375 28.43359375 C-50.63556075 28.97487939 -48.83599044 29.5110768 -47.03515625 30.04296875 C-44.92540801 30.68115985 -42.83375422 31.37912031 -40.75 32.09765625 C-36.55416763 33.03006344 -33.58922874 32.58699463 -29.375 31.84765625 C-29.375 30.52765625 -29.375 29.20765625 -29.375 27.84765625 C-29.95765625 28.05003906 -30.5403125 28.25242188 -31.140625 28.4609375 C-39.08725216 30.69748823 -44.19828037 28.522334 -51.375 24.84765625 C-49.88423566 21.56496305 -47.98879679 18.91688184 -45.75 16.09765625 C-45.11835938 15.2984375 -44.48671875 14.49921875 -43.8359375 13.67578125 C-43.35382813 13.0725 -42.87171875 12.46921875 -42.375 11.84765625 C-34.78195652 13.64939538 -34.78195652 13.64939538 -31.9375 15.03515625 C-27.6109826 16.40697884 -22.45011195 15.88521222 -18.375 13.84765625 C-18.375 13.18765625 -18.375 12.52765625 -18.375 11.84765625 C-18.89707031 12.05003906 -19.41914063 12.25242188 -19.95703125 12.4609375 C-26.51938571 14.51813793 -30.26748346 13.09897475 -36.28515625 10.01171875 C-36.97480469 9.62757813 -37.66445312 9.2434375 -38.375 8.84765625 C-37.715 7.85765625 -37.055 6.86765625 -36.375 5.84765625 C-35.715 5.84765625 -35.055 5.84765625 -34.375 5.84765625 C-34.375 5.18765625 -34.375 4.52765625 -34.375 3.84765625 C-31.56662698 1.56147504 -28.46970843 -0.27962292 -25.375 -2.15234375 C-24.76785156 -2.52488281 -24.16070312 -2.89742187 -23.53515625 -3.28125 C-16.15870954 -7.15171498 -7.26630551 -2.59093919 0 0 Z " fill="#3C4247" transform="translate(183.375,173.15234375)"/>
<path d="M0 0 C4.26300921 3.90775844 5.72033166 8.76794633 6.20654297 14.38696289 C6.30538067 17.09475741 6.32796174 19.79044745 6.3125 22.5 C6.30976074 23.47179199 6.30702148 24.44358398 6.30419922 25.44482422 C6.18637286 33.63714204 4.88669451 41.0265825 3 49 C2.71478526 50.89372312 2.44354322 52.7896126 2.1875 54.6875 C-2.76569243 84.566435 -18.68097874 123.07343856 -42.359375 142.84375 C-46.24817226 145.58442616 -49.19132003 146.601085 -54 146 C-58.53648279 142.5976379 -59.70306278 138.75192957 -60.625 133.3125 C-61.67032187 123.06834571 -60.55122241 113.13613044 -59 103 C-58.89236328 102.26555664 -58.78472656 101.53111328 -58.67382812 100.77441406 C-55.02683066 76.86288547 -46.21051925 50.60722347 -32.6015625 30.43359375 C-31.14025635 28.21312123 -29.94218282 25.99650036 -28.75 23.625 C-23.85050862 14.68020488 -11.81238841 -3.02177378 0 0 Z M-26 42 C-29.00800132 46.50306733 -31.56563011 51.17223476 -34 56 C-34.32033203 56.63260742 -34.64066406 57.26521484 -34.97070312 57.91699219 C-40.09546213 68.25595672 -43.06238027 78.64393603 -45 90 C-45.18691406 91.08925781 -45.37382812 92.17851562 -45.56640625 93.30078125 C-46.37019562 99.41804141 -45.68116461 103.43142736 -43 109 C-41.9236509 110.26254923 -41.9236509 110.26254923 -39.4375 110.5 C-33.5082414 109.63756238 -30.03771937 105.51058726 -26.3671875 100.98828125 C-14.71784562 84.49012954 -6.52607797 61.34922142 -9 41 C-10.1770961 38.11492318 -10.1770961 38.11492318 -12 36 C-18.5296674 34.6187242 -22.01548784 37.16717235 -26 42 Z " fill="#3C4146" transform="translate(224,188)"/>
<path d="M0 0 C5.40828738 4.45682942 9.36619445 9.46836421 10.734375 16.48828125 C11.41333247 25.39306966 10.78715537 33.9091107 5.734375 41.48828125 C5.074375 41.48828125 4.414375 41.48828125 3.734375 41.48828125 C4.22550781 42.30039063 4.22550781 42.30039063 4.7265625 43.12890625 C5.95102267 45.99547192 5.93329646 48.13357995 5.859375 51.23828125 C5.84132813 52.223125 5.82328125 53.20796875 5.8046875 54.22265625 C5.78148437 54.9703125 5.75828125 55.71796875 5.734375 56.48828125 C5.074375 56.48828125 4.414375 56.48828125 3.734375 56.48828125 C3.734375 57.14828125 3.734375 57.80828125 3.734375 58.48828125 C-0.5261309 61.32861852 -4.2667173 61.36687715 -9.265625 60.48828125 C-12.83058595 58.48461707 -15.5241871 56.07542176 -17.265625 52.34765625 C-18.18145076 50.13537843 -18.18145076 50.13537843 -21.265625 49.48828125 C-21.53375 50.56078125 -21.801875 51.63328125 -22.078125 52.73828125 C-23.84507925 58.31813679 -23.84507925 58.31813679 -26.265625 60.48828125 C-31.17857327 61.78604117 -34.68574226 61.72733503 -39.265625 59.48828125 C-45.28934347 53.80877526 -47.18273765 44.40529703 -47.46875 36.37890625 C-47.73152079 20.69014263 -47.73152079 20.69014263 -44.265625 13.48828125 C-43.99878906 12.80765625 -43.73195313 12.12703125 -43.45703125 11.42578125 C-40.52772998 4.55168761 -35.09376866 -0.50176154 -28.265625 -3.51171875 C-18.8603415 -5.75107196 -8.23191778 -5.49267618 0 0 Z M-24.265625 24.48828125 C-24.34622575 27.79291209 -23.51519752 29.14627446 -21.578125 31.80078125 C-19.3236433 33.70022338 -19.3236433 33.70022338 -16.265625 34.05078125 C-13.11935467 33.72325123 -13.11935467 33.72325123 -10.828125 31.36328125 C-9.00596539 28.57582377 -9.00596539 28.57582377 -9.328125 25.36328125 C-10.46887313 21.7662124 -10.46887313 21.7662124 -13.265625 19.48828125 C-18.69476498 18.54408299 -21.05907655 20.11571518 -24.265625 24.48828125 Z " fill="#EAF8FD" transform="translate(401.265625,180.51171875)"/>
<path d="M0 0 C6.32179334 7.94353605 6.74889018 16.09956394 6.24853516 25.91503906 C5.6995573 30.52041322 3.53045903 34.20845975 1 38 C0.505 38.99 0.505 38.99 0 40 C0.309375 40.556875 0.61875 41.11375 0.9375 41.6875 C2.47405045 45.03175687 2.43996127 47.35460666 2 51 C-0.28682842 55.33708839 -0.28682842 55.33708839 -3 57 C-7.6457576 58.0665915 -11.96146499 58.12970324 -16.19921875 55.78125 C-18.74973619 53.68522728 -20.57879265 51.85180965 -22.05078125 48.875 C-23.26365468 46.47920062 -24.55716197 45.97713521 -27 45 C-26.979375 46.093125 -26.95875 47.18625 -26.9375 48.3125 C-27 52 -27 52 -28 55 C-31.29084293 57.19389529 -33.09267558 57.69354318 -37 58 C-39.86263008 57.2292919 -42.35513651 56.32243175 -45 55 C-45 54.34 -45 53.68 -45 53 C-45.66 53 -46.32 53 -47 53 C-52.4117282 39.4832649 -54.40009551 23.91281967 -48.8203125 10.07421875 C-47.08915938 6.53508619 -45.18548811 3.27823216 -43 0 C-42.34 0 -41.68 0 -41 0 C-41 -0.66 -41 -1.32 -41 -2 C-27.49414167 -10.13352802 -12.38460928 -10.78050751 0 0 Z M-28 20 C-28.75 23 -28.75 23 -28 26 C-26.5 28.5 -26.5 28.5 -24 30 C-20.3282913 30.61195145 -18.71186432 30.48706506 -15.625 28.375 C-13.51293494 25.28813568 -13.38804855 23.6717087 -14 20 C-15.95921082 17.24259218 -17.11087043 16.18238555 -20.4375 15.5 C-23.95385308 16.18611767 -25.57904909 17.37153902 -28 20 Z " fill="#E9F7FD" transform="translate(347,184)"/>
<path d="M0 0 C4.62937017 3.56847284 7.35987457 8.18906946 9.1875 13.6875 C10.18609987 23.84767308 8.941169 31.88397493 4 40.83984375 C3.731875 41.44957031 3.46375 42.05929687 3.1875 42.6875 C3.81790043 44.03835807 4.49001417 45.37002676 5.1875 46.6875 C5.68244564 51.33998906 4.99514101 53.94397865 2.1875 57.6875 C-2.06486797 60.52241198 -5.82055425 60.44951041 -10.8125 59.6875 C-15.2010109 57.48413976 -17.3706966 53.79416936 -19.8125 49.6875 C-21.87950655 48.35956394 -21.87950655 48.35956394 -23.8125 47.6875 C-23.73 48.739375 -23.6475 49.79125 -23.5625 50.875 C-23.8125 54.6875 -23.8125 54.6875 -25.125 57.625 C-28.81943931 60.46026738 -31.67738983 60.3220409 -36.23828125 60.12109375 C-38.8125 59.6875 -38.8125 59.6875 -41.5 57.8125 C-42.8125 55.6875 -42.8125 55.6875 -42.8125 53.6875 C-43.4725 53.6875 -44.1325 53.6875 -44.8125 53.6875 C-48.92572116 38.67913945 -50.80131776 21.59570378 -43.0625 7.5 C-31.97586964 -6.35828795 -15.5915491 -10.24021233 0 0 Z M-23.8125 20.6875 C-25.11996709 21.78673541 -25.11996709 21.78673541 -25.125 24.5 C-25.06712944 27.72428432 -25.06712944 27.72428432 -23.1875 30.0625 C-20.10063568 32.17456506 -18.4842087 32.29945145 -14.8125 31.6875 C-12.3125 30.1875 -12.3125 30.1875 -10.8125 27.6875 C-10.35475875 24.48331126 -10.20277983 22.61812552 -12 19.875 C-16.64449254 16.83205661 -19.44332309 17.53198335 -23.8125 20.6875 Z " fill="#E9F7FD" transform="translate(323.8125,276.3125)"/>
<path d="M0 0 C6.89144293 4.65758785 11.16647594 9.81592571 13 18 C14.26175353 27.16431514 11.4696355 34.43121407 7.8046875 42.6953125 C7.53914063 43.45585937 7.27359375 44.21640625 7 45 C7.33 45.66 7.66 46.32 8 47 C8.61493604 51.96341236 8.73594779 55.77342035 6.125 60.125 C1.70405424 62.77756746 -1.96838559 62.74726947 -7 62 C-11.60744148 60.19708812 -13.56855621 57.23251326 -16 53 C-16 52.34 -16 51.68 -16 51 C-17.32 50.67 -18.64 50.34 -20 50 C-19.87625 51.299375 -19.87625 51.299375 -19.75 52.625 C-20.07949146 57.07313472 -20.78952041 58.86418273 -24 62 C-27.80757352 62.82595056 -31.18273424 62.7430339 -35 62 C-40.79782871 58.13478086 -42.57108464 51.55033862 -44 45 C-45.10529674 31.53606371 -45.74900977 18.60045213 -38 7 C-37.34 7 -36.68 7 -36 7 C-35.67 6.01 -35.34 5.02 -35 4 C-26.02243318 -4.70551934 -10.89873542 -5.93931086 0 0 Z M-19 21 C-20.8727078 22.63517472 -20.8727078 22.63517472 -22 25 C-21.92936148 28.46128747 -21.64776603 30.28025997 -19.3125 32.875 C-16.33245569 34.32475128 -14.27793445 34.34871643 -11 34 C-7.62953018 32.25666537 -7.62953018 32.25666537 -7.25 28.5 C-6.71190855 25.15134758 -6.71190855 25.15134758 -8 23 C-8.66 23 -9.32 23 -10 23 C-10 22.34 -10 21.68 -10 21 C-14.53140653 20.06619039 -14.53140653 20.06619039 -19 21 Z " fill="#E8F7FD" transform="translate(379,274)"/>
<path d="M0 0 C2.82051237 3.34467839 3.9045166 6.22249229 4.4375 10.5625 C3.87300687 14.99780316 2.86796829 18.53231063 -0.75 21.375 C-7.21330517 23.17036255 -13.62979035 21.4355402 -20 20 C-18.45294805 23.0941039 -15.39360753 23.51298165 -12.3125 24.6875 C-6.25252655 27.12663358 -2.62623003 29.50885167 1 35 C2.7354912 40.2064736 2.66344383 45.14934089 0.8125 50.3125 C-2.29137854 54.91480266 -5.8241606 57.20460723 -11 59 C-22.59645658 60.88626946 -32.96656989 60.52998377 -43 54 C-45.51516127 51.54618413 -46.68245183 49.77402367 -48 46.5625 C-48 42.79464969 -46.29584199 40.88620135 -44 38 C-40.07551197 36.03775598 -35.60013112 36.57461738 -31.47265625 37.671875 C-29.29394368 38.40155441 -27.14126232 39.16728688 -25 40 C-26.48594555 37.02810891 -28.62438242 36.8441754 -31.6875 35.6875 C-37.94460097 33.14601718 -42.07474825 30.98745962 -45.8125 25.1875 C-48.15159301 18.90888191 -48.75042699 14.09416594 -46.0703125 7.94921875 C-42.53441016 1.50974696 -37.92590566 -2.51788352 -31 -5 C-20.28164427 -7.61888627 -9.07061059 -6.4540883 0 0 Z " fill="#E8F7FD" transform="translate(290,182)"/>
<path d="M0 0 C3.06814049 2.62070334 4.7231175 4.44896793 5.44140625 8.47265625 C5.62358909 12.46304804 5.57951471 15.10843891 3.375 18.5 C-2.35748861 22.12051912 -8.65673113 22.538855 -15.25390625 23.03515625 C-18.7853274 23.38896593 -20.72758716 23.77370093 -23.4921875 26.0703125 C-23.98976562 26.70710938 -24.48734375 27.34390625 -25 28 C-23.78183594 28.04898438 -22.56367188 28.09796875 -21.30859375 28.1484375 C-19.68487563 28.22352273 -18.06117874 28.29906802 -16.4375 28.375 C-15.23770508 28.42140625 -15.23770508 28.42140625 -14.01367188 28.46875 C-8.41510959 28.7429653 -2.95182536 29.19081672 1.9375 32.1875 C3.68274717 35.16468636 3.35391967 37.63776317 3 41 C1.58271517 43.41642663 0.64774454 44.72535631 -1.953125 45.828125 C-9.64293895 47.24053981 -17.20969557 47.18696731 -25 47 C-24.93039063 47.99580078 -24.93039063 47.99580078 -24.859375 49.01171875 C-24.68701131 53.22847321 -24.65315054 56.24597943 -26.4375 60.125 C-29.70632326 62.5168219 -31.84305164 62.59687125 -35.81640625 62.35546875 C-39.90817319 61.68936715 -42.1025068 60.09693613 -44.6875 56.9375 C-48.0690014 49.36937781 -48.34112216 41.17449002 -48.3125 33 C-48.32861328 32.07960938 -48.34472656 31.15921875 -48.36132812 30.2109375 C-48.3689661 19.36501635 -45.93199104 11.95743594 -38.328125 4.1328125 C-27.84846786 -5.46767877 -12.51531829 -6.36744264 0 0 Z " fill="#EAF8FD" transform="translate(270,274)"/>
<path d="M0 0 C1.98 0 3.96 0 6 0 C10.9512107 14.85363209 2.51385349 36.40850431 -3.95507812 50.0078125 C-7.34199032 56.66233274 -10.89109368 63.52013537 -17 68 C-19.62671187 67.94162863 -21.11106326 67.88893674 -23 66 C-24.9460867 44.78446467 -15.62814407 21.4422161 -4 4 C-3.34 4 -2.68 4 -2 4 C-1.34 2.68 -0.68 1.36 0 0 Z " fill="#3C3F43" transform="translate(205,227)"/>
<path d="M0 0 C0.33 0.66 0.66 1.32 1 2 C0.06421005 4.35981813 -0.93347808 6.69631264 -2 9 C-0.68 9.33 0.64 9.66 2 10 C1.67 10.99 1.34 11.98 1 13 C0.34 13 -0.32 13 -1 13 C-1 14.32 -1 15.64 -1 17 C0.65 17.33 2.3 17.66 4 18 C3.5875 18.59683594 3.175 19.19367188 2.75 19.80859375 C-5.88633593 32.78237518 -13.14642994 47.59626259 -16 63 C-16.33 63 -16.66 63 -17 63 C-16.67 58.71 -16.34 54.42 -16 50 C-15.34 50 -14.68 50 -14 50 C-14.33 48.68 -14.66 47.36 -15 46 C-16.98 46.495 -16.98 46.495 -19 47 C-19.103125 48.11375 -19.20625 49.2275 -19.3125 50.375 C-19.539375 51.57125 -19.76625 52.7675 -20 54 C-20.99 54.66 -21.98 55.32 -23 56 C-23.33 56.99 -23.66 57.98 -24 59 C-23.01 59 -22.02 59 -21 59 C-21.33 59.66 -21.66 60.32 -22 61 C-23.32 60.67 -24.64 60.34 -26 60 C-25.31821905 54.59819709 -23.68607541 49.72916204 -21.875 44.625 C-21.56369141 43.74593994 -21.25238281 42.86687988 -20.93164062 41.96118164 C-16.44700322 29.48969378 -11.41422345 18.04792702 -4 7 C-2.62125768 4.68857905 -1.30718147 2.35292665 0 0 Z " fill="#394B56" transform="translate(197,209)"/>
<path d="M0 0 C0.64066406 0.19335938 1.28132812 0.38671875 1.94140625 0.5859375 C11.42049284 3.47390248 11.42049284 3.47390248 21 6 C19 8 19 8 15.875 8.125 C14.92625 8.08375 13.9775 8.0425 13 8 C13.4640625 9.5778125 13.4640625 9.5778125 13.9375 11.1875 C14.75685094 14.12752396 15.45483931 17.00161623 16 20 C15.01 20 14.02 20 13 20 C13 18.68 13 17.36 13 16 C12.29875 16.33 11.5975 16.66 10.875 17 C4.61015438 19.17907674 0.50787191 17.6077015 -5.2421875 14.875 C-5.82226562 14.58625 -6.40234375 14.2975 -7 14 C-5.53967505 8.68972746 -3.01679014 4.53669968 0 0 Z " fill="#3A4753" transform="translate(129,201)"/>
<path d="M0 0 C0.33 0 0.66 0 1 0 C1 4.33333333 1 8.66666667 1 13 C1.99 13.33 2.98 13.66 4 14 C4.33 13.34 4.66 12.68 5 12 C5.66 12 6.32 12 7 12 C4.93145577 18.81494706 2.21589525 25.15330129 -0.875 31.5625 C-1.29652344 32.45646484 -1.71804687 33.35042969 -2.15234375 34.27148438 C-4.75041483 39.70200909 -7.43565373 45.12505514 -11 50 C-11.33 50 -11.66 50 -12 50 C-12.46192125 45.07284004 -10.8275283 41.49267375 -9 37 C-7.68 37 -6.36 37 -5 37 C-5 35.02 -5 33.04 -5 31 C-4.34 31 -3.68 31 -3 31 C-3.66 28.03 -4.32 25.06 -5 22 C-5.598125 22.969375 -6.19625 23.93875 -6.8125 24.9375 C-9 28 -9 28 -12 29 C-10.64998867 25.48056747 -9.11323315 22.08162826 -7.48657227 18.68188477 C-4.55312745 12.5491638 -1.94770935 6.53055489 0 0 Z " fill="#384A56" transform="translate(210,260)"/>
<path d="M0 0 C1.6510403 0.39553053 3.2958515 0.81713897 4.9375 1.25 C5.85402344 1.48203125 6.77054688 1.7140625 7.71484375 1.953125 C10 3 10 3 10.90625 4.71875 C11.03181978 7.77428139 10.36333534 10.30292596 9.5625 13.25 C9.13130859 14.86648438 9.13130859 14.86648438 8.69140625 16.515625 C8.46324219 17.33546875 8.23507813 18.1553125 8 19 C-3.15889691 15.9448457 -3.15889691 15.9448457 -7 13 C-7 12.34 -7 11.68 -7 11 C-7.66 11 -8.32 11 -9 11 C-9.66 10.34 -10.32 9.68 -11 9 C-11.66 9 -12.32 9 -13 9 C-13.33 9.66 -13.66 10.32 -14 11 C-14 9.35 -14 7.7 -14 6 C-7.84765625 6.5859375 -7.84765625 6.5859375 -6 7 C-5.67 7.66 -5.34 8.32 -5 9 C-4.67 8.34 -4.34 7.68 -4 7 C-1.71484375 6.5859375 -1.71484375 6.5859375 1.0625 6.375 C1.98160156 6.30023438 2.90070313 6.22546875 3.84765625 6.1484375 C4.91306641 6.07496094 4.91306641 6.07496094 6 6 C6 5.01 6 4.02 6 3 C3.03 2.505 3.03 2.505 0 2 C0 1.34 0 0.68 0 0 Z " fill="#3A4044" transform="translate(154,271)"/>
<path d="M0 0 C5.66104589 0.49658297 9.87674471 1.54510684 15 4 C14.54636829 5.58468677 14.08688548 7.16769924 13.625 8.75 C13.36976563 9.63171875 13.11453125 10.5134375 12.8515625 11.421875 C12.0790066 13.76080572 11.16374324 15.83442562 10 18 C6.53058454 17.54177532 3.32604951 17.10868317 0 16 C0 15.01 0 14.02 0 13 C0.66 12.67 1.32 12.34 2 12 C1.979375 11.05125 1.95875 10.1025 1.9375 9.125 C2 6 2 6 3 4 C2.34 4 1.68 4 1 4 C0.67 2.68 0.34 1.36 0 0 Z " fill="#394147" transform="translate(162,234)"/>
<path d="M0 0 C1.38671875 1.6953125 1.38671875 1.6953125 2 4 C0.6640625 6.796875 0.6640625 6.796875 -1.375 9.75 C-2.04273438 10.73484375 -2.71046875 11.7196875 -3.3984375 12.734375 C-3.92695313 13.48203125 -4.45546875 14.2296875 -5 15 C-9.85834353 14.29120484 -13.57395923 13.03597876 -18 11 C-17.360625 10.71125 -16.72125 10.4225 -16.0625 10.125 C-13.84793921 9.17176549 -13.84793921 9.17176549 -13 7 C-12.34 7 -11.68 7 -11 7 C-11 5.02 -11 3.04 -11 1 C-6.97400671 -1.01299665 -4.33164977 -1.34762437 0 0 Z " fill="#3B3F44" transform="translate(193,203)"/>
<path d="M0 0 C0 0.66 0 1.32 0 2 C1.65 2 3.3 2 5 2 C5.125 5.375 5.125 5.375 5 9 C4.34 9.66 3.68 10.32 3 11 C3 11.99 3 12.98 3 14 C-2.94 13.01 -2.94 13.01 -9 12 C-9 10.68 -9 9.36 -9 8 C-8.01 8 -7.02 8 -6 8 C-6 6.68 -6 5.36 -6 4 C-6.66 3.67 -7.32 3.34 -8 3 C-7.67 2.34 -7.34 1.68 -7 1 C-7.66 0.34 -8.32 -0.32 -9 -1 C-5.79937313 -2.60031344 -3.27728194 -1.03173691 0 0 Z " fill="#3C3F42" transform="translate(162,254)"/>
<path d="M0 0 C2.31 0.33 4.62 0.66 7 1 C6.15628891 6.45987752 3.7601499 10.25820402 1 15 C-2.3 14.01 -5.6 13.02 -9 12 C-9 11.67 -9 11.34 -9 11 C-7.35 11 -5.7 11 -4 11 C-4.20625 9.88625 -4.4125 8.7725 -4.625 7.625 C-4.74875 6.42875 -4.8725 5.2325 -5 4 C-4.34 3.34 -3.68 2.68 -3 2 C-2.01 2 -1.02 2 0 2 C0 1.34 0 0.68 0 0 Z " fill="#3B4149" transform="translate(178,220)"/>
<path d="M0 0 C0.33 0.66 0.66 1.32 1 2 C0.06421005 4.35981813 -0.93347808 6.69631264 -2 9 C-0.68 9.33 0.64 9.66 2 10 C1.67 10.99 1.34 11.98 1 13 C0.34 13 -0.32 13 -1 13 C-1 14.32 -1 15.64 -1 17 C0.65 17.33 2.3 17.66 4 18 C3.02501855 19.5027237 2.04490611 21.00211963 1.0625 22.5 C0.24458984 23.75296875 0.24458984 23.75296875 -0.58984375 25.03125 C-1.05519531 25.6809375 -1.52054688 26.330625 -2 27 C-2.33 27 -2.66 27 -3 27 C-3 24.36 -3 21.72 -3 19 C-5.89186786 17.66695302 -5.89186786 17.66695302 -8.1875 18.9375 C-8.785625 19.288125 -9.38375 19.63875 -10 20 C-9.42877205 15.32307114 -7.3633273 11.7329502 -5 7.75 C-4.44699219 6.79480469 -4.44699219 6.79480469 -3.8828125 5.8203125 C-1.17426658 1.17426658 -1.17426658 1.17426658 0 0 Z " fill="#375361" transform="translate(197,209)"/>
<path d="M0 0 C2.64 0 5.28 0 8 0 C8.33 1.65 8.66 3.3 9 5 C8.01 5.495 8.01 5.495 7 6 C6.38125 5.360625 5.7625 4.72125 5.125 4.0625 C3.17402388 1.96116416 3.17402388 1.96116416 1 1 C1.12375 2.5778125 1.12375 2.5778125 1.25 4.1875 C1 8 1 8 -0.3125 10.9375 C-4.02769505 13.7886962 -6.96580421 13.51779298 -11.5390625 13.46875 C-12.35117187 13.3140625 -13.16328125 13.159375 -14 13 C-14.66 12.01 -15.32 11.02 -16 10 C-14.02 9.67 -12.04 9.34 -10 9 C-10 8.34 -10 7.68 -10 7 C-7.69 6.34 -5.38 5.68 -3 5 C-3 5.66 -3 6.32 -3 7 C-2.34 6.67 -1.68 6.34 -1 6 C-0.34227572 2.97065509 -0.34227572 2.97065509 0 0 Z " fill="#DAF8FD" transform="translate(299,323)"/>
<path d="M0 0 C0.33 0 0.66 0 1 0 C1 1.98 1 3.96 1 6 C0.34 6 -0.32 6 -1 6 C-1.33 10.29 -1.66 14.58 -2 19 C-2.99 19 -3.98 19 -5 19 C-5 19.66 -5 20.32 -5 21 C-5.99 21 -6.98 21 -8 21 C-7.49396008 18.83125748 -7.00016187 17.00032373 -6 15 C-6.99 15 -7.98 15 -9 15 C-8.625 13.0625 -8.625 13.0625 -8 11 C-7.34 10.67 -6.68 10.34 -6 10 C-5.53348793 7.87423218 -5.53348793 7.87423218 -5.375 5.4375 C-5.30023438 4.61121094 -5.22546875 3.78492188 -5.1484375 2.93359375 C-5.09945312 2.29550781 -5.05046875 1.65742188 -5 1 C-3.68 1.33 -2.36 1.66 -1 2 C-0.67 1.34 -0.34 0.68 0 0 Z " fill="#3C3F41" transform="translate(182,253)"/>
<path d="M0 0 C1.32 0 2.64 0 4 0 C2.23406593 4.26767399 -0.12254632 6.14164361 -4.28125 8.04296875 C-12.56565074 10.95917303 -23.68098249 11.21382185 -31.84375 7.81640625 C-34.27501142 6.61101962 -36.64954311 5.35526344 -39 4 C-37.3125 3.3125 -37.3125 3.3125 -35 3 C-34.25919189 3.48251221 -33.51838379 3.96502441 -32.75512695 4.4621582 C-29.43699205 6.31425672 -27.38324566 6.34668122 -23.60546875 6.29296875 C-22.40341797 6.28330078 -21.20136719 6.27363281 -19.96289062 6.26367188 C-18.71701172 6.23853516 -17.47113281 6.21339844 -16.1875 6.1875 C-14.92228516 6.17396484 -13.65707031 6.16042969 -12.35351562 6.14648438 C-9.23524357 6.11118318 -6.11783958 6.06186819 -3 6 C-3 5.01 -3 4.02 -3 3 C-2.34 3 -1.68 3 -1 3 C-0.67 2.01 -0.34 1.02 0 0 Z " fill="#C7F6FD" transform="translate(286,232)"/>
<path d="M0 0 C3.875 1.875 3.875 1.875 5 3 C5.46754331 9.19494886 5.46754331 9.19494886 3.75 12.15234375 C-0.18350461 16.30535197 -6.58983851 15.95860583 -11.9921875 16.1171875 C-15.66284721 16.14317141 -19.33027203 16.08807347 -23 16 C-22.97679687 16.69867188 -22.95359375 17.39734375 -22.9296875 18.1171875 C-22.91164062 19.02726562 -22.89359375 19.93734375 -22.875 20.875 C-22.85179687 21.77992188 -22.82859375 22.68484375 -22.8046875 23.6171875 C-23 26 -23 26 -25 28 C-24.67 23.38 -24.34 18.76 -24 14 C-21.77830078 13.92652344 -21.77830078 13.92652344 -19.51171875 13.8515625 C-17.5702935 13.77653157 -15.62888818 13.70098388 -13.6875 13.625 C-12.71103516 13.5940625 -11.73457031 13.563125 -10.72851562 13.53125 C-9.32182617 13.47324219 -9.32182617 13.47324219 -7.88671875 13.4140625 C-7.02264404 13.3826416 -6.15856934 13.3512207 -5.26831055 13.31884766 C-2.72257555 13.12811963 -2.72257555 13.12811963 0 11 C0.99 11 1.98 11 3 11 C3 8.69 3 6.38 3 4 C2.01 3.67 1.02 3.34 0 3 C0 2.01 0 1.02 0 0 Z " fill="#C5F9FD" transform="translate(268,305)"/>
<path d="M0 0 C0.625 1.8125 0.625 1.8125 1 4 C0.01 5.485 0.01 5.485 -1 7 C-1.4290258 9.09341518 -1.4290258 9.09341518 -1.5625 11.5 C-1.6346875 12.45519531 -1.706875 13.41039062 -1.78125 14.39453125 C-2.23826904 21.9271843 -2.63288736 29.46247451 -3 37 C-3.66 37 -4.32 37 -5 37 C-7.6531603 27.47600525 -7.36336723 14.90362772 -3 6 C-2.443125 4.824375 -1.88625 3.64875 -1.3125 2.4375 C-0.879375 1.633125 -0.44625 0.82875 0 0 Z " fill="#C1EFF9" transform="translate(360,188)"/>
<path d="M0 0 C2.64 0.33 5.28 0.66 8 1 C8 1.99 8 2.98 8 4 C7.34 4 6.68 4 6 4 C6 6.64 6 9.28 6 12 C5.34 12 4.68 12 4 12 C3.67 12.99 3.34 13.98 3 15 C2.34 15.66 1.68 16.32 1 17 C-1 14 -1 14 -2 12 C-1.67 11.34 -1.34 10.68 -1 10 C-0.77377919 8.29636178 -0.59111527 6.58671299 -0.4375 4.875 C-0.35371094 3.96492188 -0.26992187 3.05484375 -0.18359375 2.1171875 C-0.12300781 1.41851562 -0.06242188 0.71984375 0 0 Z " fill="#3C3E44" transform="translate(211,260)"/>
<path d="M0 0 C4.571279 0.54855348 8.67435795 1.41744803 13 3 C12.25 4.9375 12.25 4.9375 11 7 C8.875 7.75 8.875 7.75 7 8 C6.67 10.31 6.34 12.62 6 15 C3.17412288 12.60156648 2.29810862 10.47839022 1.3125 6.9375 C1.06113281 6.05964844 0.80976562 5.18179687 0.55078125 4.27734375 C0 2 0 2 0 0 Z " fill="#383F45" transform="translate(107,295)"/>
<path d="M0 0 C4.95 1.98 9.9 3.96 15 6 C14.33286829 10.00279027 13.7351151 13.15140884 12.4375 16.875 C12.16808594 17.65617187 11.89867187 18.43734375 11.62109375 19.2421875 C11.41613281 19.82226562 11.21117187 20.40234375 11 21 C6.39146203 20.27991594 2.32762591 18.68704061 -2 17 C-2 16.67 -2 16.34 -2 16 C-0.56208484 16.14168137 0.8753237 16.28851043 2.3125 16.4375 C3.11300781 16.51871094 3.91351563 16.59992188 4.73828125 16.68359375 C7 17 7 17 10 18 C9.67 16.68 9.34 15.36 9 14 C9.66 13.67 10.32 13.34 11 13 C11.40729228 10.67843403 11.74438677 8.3431213 12 6 C10.35 6 8.7 6 7 6 C7 5.34 7 4.68 7 4 C4.03 3.505 4.03 3.505 1 3 C0.67 2.01 0.34 1.02 0 0 Z " fill="#3B657E" transform="translate(155,250)"/>
<path d="M0 0 C1.17755859 0.14888672 1.17755859 0.14888672 2.37890625 0.30078125 C4.4375 0.6875 4.4375 0.6875 6.4375 1.6875 C6.1075 2.3475 5.7775 3.0075 5.4375 3.6875 C4.715625 3.460625 3.99375 3.23375 3.25 3 C0.38068191 2.46548859 0.38068191 2.46548859 -2.375 3.75 C-4.86189012 5.54318913 -4.86189012 5.54318913 -5.0625 8.6875 C-4.76338363 11.61231548 -4.76338363 11.61231548 -3.4375 13.5625 C-0.68159116 15.21604531 1.28825452 15.08115568 4.4375 14.6875 C6.97535617 13.02476664 7.3693384 11.95394989 8.125 9 C8.228125 8.236875 8.33125 7.47375 8.4375 6.6875 C8.7675 6.6875 9.0975 6.6875 9.4375 6.6875 C9.74125856 10.02884421 9.76546316 12.09404286 8.125 15.0625 C3.82656162 17.66155576 -0.66382815 16.99155549 -5.5625 16.6875 C-7.14664297 13.17209111 -7.85750217 10.35535495 -7.875 6.5 C-7.89175781 5.64019531 -7.90851563 4.78039062 -7.92578125 3.89453125 C-7.80589844 3.16621094 -7.68601562 2.43789063 -7.5625 1.6875 C-4.24985796 -0.52092803 -3.72798604 -0.50975756 0 0 Z " fill="#C3F2FB" transform="translate(304.5625,292.3125)"/>
<path d="M0 0 C0.33 0 0.66 0 1 0 C1.33 3.63 1.66 7.26 2 11 C1.34 11 0.68 11 0 11 C0 12.98 0 14.96 0 17 C-1.32 16.67 -2.64 16.34 -4 16 C-4 14.68 -4 13.36 -4 12 C-4.99 12.99 -5.98 13.98 -7 15 C-8 12 -8 12 -7.0625 9.8125 C-6.5365625 8.9153125 -6.5365625 8.9153125 -6 8 C-5.34 8 -4.68 8 -4 8 C-3.566875 6.8553125 -3.566875 6.8553125 -3.125 5.6875 C-2 3 -2 3 0 0 Z " fill="#3B3F41" transform="translate(205,280)"/>
<path d="M0 0 C0.66 0.33 1.32 0.66 2 1 C0.6875 3 0.6875 3 -1 5 C-1.99 5 -2.98 5 -4 5 C-4.33 6.32 -4.66 7.64 -5 9 C1.04829486 9.89604368 6.8894576 10.11269443 13 10 C13 11.98 13 13.96 13 16 C11.68 15.67 10.36 15.34 9 15 C9.66 14.67 10.32 14.34 11 14 C11 13.34 11 12.68 11 12 C10.47792969 12.20238281 9.95585937 12.40476563 9.41796875 12.61328125 C2.85561429 14.67048168 -0.89248346 13.2513185 -6.91015625 10.1640625 C-7.59980469 9.77992188 -8.28945312 9.39578125 -9 9 C-8.34 8.01 -7.68 7.02 -7 6 C-6.34 6 -5.68 6 -5 6 C-5 5.34 -5 4.68 -5 4 C-3.37373596 2.61767557 -1.7074998 1.28062485 0 0 Z " fill="#326176" transform="translate(154,173)"/>
<path d="M0 0 C7.53424658 1.02739726 7.53424658 1.02739726 10 3 C10.81511634 5.83556427 11.02141367 8.69147542 11.25 11.625 C11.32734375 12.42679687 11.4046875 13.22859375 11.484375 14.0546875 C11.6729702 16.03493711 11.8386703 18.01734285 12 20 C6.93918838 19.25320402 2.73525719 17.8777744 -2 16 C2.15771494 14.68461673 4.8879297 15.65566932 9 17 C8.91291331 15.54054712 8.80473093 14.08234132 8.6875 12.625 C8.62949219 11.81289063 8.57148438 11.00078125 8.51171875 10.1640625 C8.17009472 7.62078662 8.17009472 7.62078662 5 6 C5 5.01 5 4.02 5 3 C4.01 3 3.02 3 2 3 C2 2.34 2 1.68 2 1 C1.34 0.67 0.68 0.34 0 0 Z " fill="#2B5D6E" transform="translate(150,310)"/>
<path d="M0 0 C2.25 0.125 2.25 0.125 5 1 C7.3125 4.0625 7.3125 4.0625 9 7 C9.99 6.67 10.98 6.34 12 6 C12 6.99 12 7.98 12 9 C14.97 9.33 17.94 9.66 21 10 C21.66 8.35 22.32 6.7 23 5 C23.99 5.33 24.98 5.66 26 6 C24.84826645 8.46800047 23.95216435 10.04783565 22 12 C17.47572907 12.78030543 12.89687535 13.03222192 8.7890625 10.796875 C5.61187184 8.14251318 3.81386911 5.7030025 2 2 C1.34 1.34 0.68 0.68 0 0 Z " fill="#BFF2FD" transform="translate(322,229)"/>
<path d="M0 0 C1.65 0.33 3.3 0.66 5 1 C4.49287967 4.71888239 3.88391785 7.73454239 2 11 C-0.31 11 -2.62 11 -5 11 C-4.67 8.69 -4.34 6.38 -4 4 C-3.01 4 -2.02 4 -1 4 C-0.67 2.68 -0.34 1.36 0 0 Z " fill="#3D3E42" transform="translate(130,204)"/>
<path d="M0 0 C2.97 0.99 5.94 1.98 9 3 C8.54636829 4.58468677 8.08688548 6.16769924 7.625 7.75 C7.36976563 8.63171875 7.11453125 9.5134375 6.8515625 10.421875 C6.0790066 12.76080572 5.16374324 14.83442562 4 17 C-2.625 16.25 -2.625 16.25 -6 14 C-3.36 14.33 -0.72 14.66 2 15 C1.67 14.01 1.34 13.02 1 12 C1.33 11.01 1.66 10.02 2 9 C2.66 9 3.32 9 4 9 C4.66 7.35 5.32 5.7 6 4 C4.35 3.67 2.7 3.34 1 3 C0.67 3.66 0.34 4.32 0 5 C0 3.35 0 1.7 0 0 Z " fill="#346071" transform="translate(168,235)"/>
<path d="M0 0 C0.33 0 0.66 0 1 0 C1.12117187 1.04800781 1.24234375 2.09601563 1.3671875 3.17578125 C1.53603945 4.55473886 1.70533341 5.93364239 1.875 7.3125 C1.95363281 8.00279297 2.03226563 8.69308594 2.11328125 9.40429688 C2.55943847 12.95639471 2.97980193 14.9697029 5 18 C5.165 18.86625 5.33 19.7325 5.5 20.625 C5.665 21.40875 5.83 22.1925 6 23 C6.66 23.33 7.32 23.66 8 24 C8 23.01 8 22.02 8 21 C8.99 21 9.98 21 11 21 C11 22.32 11 23.64 11 25 C12.32 25.33 13.64 25.66 15 26 C12.15916359 27.42041821 10.14522722 27.31452272 7 27 C2.46351721 23.5976379 1.29693722 19.75192957 0.375 14.3125 C-0.14431957 9.54751518 -0.0882792 4.78669427 0 0 Z " fill="#36577E" transform="translate(163,307)"/>
<path d="M0 0 C0.33 0 0.66 0 1 0 C1 6.93 1 13.86 1 21 C1.99 21.33 2.98 21.66 4 22 C4 21.01 4 20.02 4 19 C5.65 19 7.3 19 9 19 C7.35 20.98 5.7 22.96 4 25 C-0.875 24.125 -0.875 24.125 -2 23 C-2.46949261 15.05138087 -2.11699982 7.67412436 0 0 Z " fill="#385C6D" transform="translate(184,270)"/>
<path d="M0 0 C4.29 1.32 8.58 2.64 13 4 C13 4.33 13 4.66 13 5 C9.04 5 5.08 5 1 5 C1 8.3 1 11.6 1 15 C1.9075 14.95875 2.815 14.9175 3.75 14.875 C6.8782046 14.99531556 8.38614006 15.3914708 11 17 C11 17.66 11 18.32 11 19 C6.89583836 18.42732628 3.9327865 17.5731146 0 16 C0 10.72 0 5.44 0 0 Z " fill="#325B6F" transform="translate(106,274)"/>
<path d="M0 0 C1.98 0 3.96 0 6 0 C8.08150964 6.24452893 7.37681259 13.63224179 6 20 C5.67 20 5.34 20 5 20 C4.67 14.39 4.34 8.78 4 3 C2.68 2.67 1.36 2.34 0 2 C-0.268125 2.556875 -0.53625 3.11375 -0.8125 3.6875 C-2.10899496 6.21225334 -3.42476323 8.63714484 -5 11 C-5.66 11 -6.32 11 -7 11 C-7 11.99 -7 12.98 -7 14 C-7.66 14 -8.32 14 -9 14 C-7.66749209 10.4124787 -6.169283 7.1635377 -4 4 C-3.34 4 -2.68 4 -2 4 C-1.34 2.68 -0.68 1.36 0 0 Z " fill="#336981" transform="translate(205,227)"/>
<path d="M0 0 C0.66 0 1.32 0 2 0 C1.29763154 13.00592623 -1.3415273 25.51967823 -5 38 C-5.33 38 -5.66 38 -6 38 C-5.54722688 33.32134441 -4.99775915 28.78165968 -4 24.1875 C-3.19507738 20.38779175 -2.77053393 16.68693236 -2.5 12.8125 C-2.17654186 8.25468072 -1.47208409 4.31811333 0 0 Z " fill="#355F71" transform="translate(227,222)"/>
<path d="M0 0 C1.1700097 3.91736581 0.69584017 6.97959015 0 11 C-0.66 11 -1.32 11 -2 11 C-1.96519531 11.62648437 -1.93039063 12.25296875 -1.89453125 12.8984375 C-1.86746094 13.71570313 -1.84039062 14.53296875 -1.8125 15.375 C-1.77769531 16.18710937 -1.74289063 16.99921875 -1.70703125 17.8359375 C-1.80371094 18.55007813 -1.90039062 19.26421875 -2 20 C-2.99 20.66 -3.98 21.32 -5 22 C-5.33 22.99 -5.66 23.98 -6 25 C-5.01 25 -4.02 25 -3 25 C-3.33 25.66 -3.66 26.32 -4 27 C-5.32 26.67 -6.64 26.34 -8 26 C-7.32058766 20.23934889 -5.39116805 15.04884675 -3.4375 9.625 C-3.10814453 8.69816406 -2.77878906 7.77132812 -2.43945312 6.81640625 C-1.6307437 4.54264353 -0.81748642 2.2706187 0 0 Z " fill="#375363" transform="translate(179,243)"/>
<path d="M0 0 C0 0.99 0 1.98 0 3 C2.475 3.99 2.475 3.99 5 5 C4.79888439 6.79503184 4.5631149 8.5862074 4.3125 10.375 C4.12107422 11.87160156 4.12107422 11.87160156 3.92578125 13.3984375 C3 16 3 16 0.625 17.375 C-2.54520667 18.12981111 -4.85021198 17.73250884 -8 17 C-8 16.67 -8 16.34 -8 16 C-5.03 15.34 -2.06 14.68 1 14 C0.67 13.01 0.34 12.02 0 11 C0.66 11 1.32 11 2 11 C1.67 9.02 1.34 7.04 1 5 C0.34 5 -0.32 5 -1 5 C-1 4.34 -1 3.68 -1 3 C-3.97 2.505 -3.97 2.505 -7 2 C-7 1.67 -7 1.34 -7 1 C-2.25 0 -2.25 0 0 0 Z " fill="#C7F0FC" transform="translate(370,292)"/>
<path d="M0 0 C1.26132231 3.78396692 0.91214879 6.14090895 0 10 C-1.8125 11.3125 -1.8125 11.3125 -4 12 C-4.7425 12.37125 -5.485 12.7425 -6.25 13.125 C-7.11625 13.558125 -7.11625 13.558125 -8 14 C-7.67 12.68 -7.34 11.36 -7 10 C-9.97 10 -12.94 10 -16 10 C-15.67 9.34 -15.34 8.68 -15 8 C-14.175 8.144375 -13.35 8.28875 -12.5 8.4375 C-6.92005398 7.74000675 -3.85201043 3.85201043 0 0 Z " fill="#355E69" transform="translate(197,289)"/>
<path d="M0 0 C1.60597325 0.45196245 3.20972508 0.91182327 4.8125 1.375 C6.15248047 1.75785156 6.15248047 1.75785156 7.51953125 2.1484375 C10 3 10 3 13 5 C10.69 5.33 8.38 5.66 6 6 C6 5.34 6 4.68 6 4 C4.35 4 2.7 4 1 4 C0.67 4.99 0.34 5.98 0 7 C-0.99 7 -1.98 7 -3 7 C-3 9.64 -3 12.28 -3 15 C-4.32 14.67 -5.64 14.34 -7 14 C-5.53967505 8.68972746 -3.01679014 4.53669968 0 0 Z " fill="#36596D" transform="translate(129,201)"/>
<path d="M0 0 C0 0.33 0 0.66 0 1 C-1.7015625 1.2165625 -1.7015625 1.2165625 -3.4375 1.4375 C-6.80777201 1.61171478 -6.80777201 1.61171478 -8 3 C-9.66617115 3.04063832 -11.33388095 3.042721 -13 3 C-13 3.66 -13 4.32 -13 5 C-16.75 6.125 -16.75 6.125 -19 5 C-19.2475 5.639375 -19.495 6.27875 -19.75 6.9375 C-21 9 -21 9 -23.125 9.75 C-24.053125 9.87375 -24.053125 9.87375 -25 10 C-25 10.66 -25 11.32 -25 12 C-25.66 12 -26.32 12 -27 12 C-25.20809088 7.16184539 -21.2607405 4.41296281 -17 1.75 C-11.47823918 -0.32066031 -5.80440424 -0.11608808 0 0 Z " fill="#BDF0FB" transform="translate(388,176)"/>
<path d="M0 0 C0.66 0 1.32 0 2 0 C1.52960495 7.83991749 -1.22937188 14.72071135 -4 22 C-6 18.25 -6 18.25 -6 16 C-5.34 16 -4.68 16 -4 16 C-4.66 13.69 -5.32 11.38 -6 9 C-4.68 8.67 -3.36 8.34 -2 8 C-2 7.34 -2 6.68 -2 6 C-1.34 6 -0.68 6 0 6 C0 4.02 0 2.04 0 0 Z " fill="#334E5E" transform="translate(207,250)"/>
<path d="M0 0 C2 2 2 2 2.3125 4.8125 C1.96197909 8.38781327 1.1405297 10.1459604 -1 13 C-4.31371 15.20914 -5.3446021 15.22481553 -9.1875 15.125 C-10.08855469 15.10695313 -10.98960937 15.08890625 -11.91796875 15.0703125 C-12.60503906 15.04710937 -13.29210937 15.02390625 -14 15 C-11.25906335 13.1727089 -8.86174676 12.06301822 -5.8125 10.875 C-4.91144531 10.52179688 -4.01039063 10.16859375 -3.08203125 9.8046875 C-2.39496094 9.53914063 -1.70789063 9.27359375 -1 9 C-1.020625 7.700625 -1.04125 6.40125 -1.0625 5.0625 C-1.08399454 3.70834367 -1.07148199 2.35243917 -1 1 C-0.67 0.67 -0.34 0.34 0 0 Z " fill="#C8F1FB" transform="translate(327,321)"/>
<path d="M0 0 C0.33 0 0.66 0 1 0 C1 2.31 1 4.62 1 7 C0.34 7 -0.32 7 -1 7 C-0.690625 8.6396875 -0.690625 8.6396875 -0.375 10.3125 C0 14 0 14 -2 17 C-2.33 17.33 -2.66 17.66 -3 18 C-3.66 18 -4.32 18 -5 18 C-5.66 19.32 -6.32 20.64 -7 22 C-5.56006454 14.27670981 -2.94467554 7.2717751 0 0 Z " fill="#395763" transform="translate(192,248)"/>
<path d="M0 0 C0.66 0.33 1.32 0.66 2 1 C2 4.63 2 8.26 2 12 C1.34 12 0.68 12 0 12 C0 12.66 0 13.32 0 14 C-3.31371 16.20914 -4.3446021 16.22481553 -8.1875 16.125 C-9.08855469 16.10695312 -9.98960937 16.08890625 -10.91796875 16.0703125 C-11.60503906 16.04710937 -12.29210937 16.02390625 -13 16 C-13 15.67 -13 15.34 -13 15 C-11.741875 14.95875 -10.48375 14.9175 -9.1875 14.875 C-6.99010474 14.69235511 -6.99010474 14.69235511 -5 14 C-2.91367303 11.08158143 -2.91367303 11.08158143 -2 8 C-1.34 8 -0.68 8 0 8 C0 5.36 0 2.72 0 0 Z " fill="#C2F3FD" transform="translate(405,225)"/>
<path d="M0 0 C0.33 0 0.66 0 1 0 C1.41800458 9.01032104 1.13226043 17.30160936 -4 25 C-4.66 25 -5.32 25 -6 25 C-6.33 25.99 -6.66 26.98 -7 28 C-7.33 26.02 -7.66 24.04 -8 22 C-6.68 22 -5.36 22 -4 22 C-3.83211627 20.37512529 -3.66573213 18.75009558 -3.5 17.125 C-3.4071875 16.22007812 -3.314375 15.31515625 -3.21875 14.3828125 C-2.96952705 12.06686789 -2.96952705 12.06686789 -3 10 C-2.34 9.67 -1.68 9.34 -1 9 C-0.53348793 6.87423218 -0.53348793 6.87423218 -0.375 4.4375 C-0.30023438 3.61121094 -0.22546875 2.78492188 -0.1484375 1.93359375 C-0.09945313 1.29550781 -0.05046875 0.65742188 0 0 Z " fill="#BBEDFC" transform="translate(411,197)"/>
<path d="M0 0 C0.99 0.33 1.98 0.66 3 1 C1.6510689 5.51451314 -0.16618294 9.32277281 -2.5625 13.375 C-3.18253906 14.43460937 -3.80257812 15.49421875 -4.44140625 16.5859375 C-4.95574219 17.38257813 -5.47007812 18.17921875 -6 19 C-6.33 19 -6.66 19 -7 19 C-7.46192125 14.07284004 -5.8275283 10.49267375 -4 6 C-2.68 6 -1.36 6 0 6 C0 4.02 0 2.04 0 0 Z " fill="#375663" transform="translate(205,291)"/>
<path d="M0 0 C2 3.75 2 3.75 2 6 C1.34 6 0.68 6 0 6 C0 8.97 0 11.94 0 15 C-0.66 15 -1.32 15 -2 15 C-1.94779297 16.37285156 -1.94779297 16.37285156 -1.89453125 17.7734375 C-1.86746094 18.96195312 -1.84039062 20.15046875 -1.8125 21.375 C-1.77769531 22.55835938 -1.74289063 23.74171875 -1.70703125 24.9609375 C-1.80371094 25.96382813 -1.90039062 26.96671875 -2 28 C-2.99 28.66 -3.98 29.32 -5 30 C-4.43617776 23.00634512 -3.37639601 16.23899157 -1.9375 9.375 C-1.75123047 8.46621094 -1.56496094 7.55742187 -1.37304688 6.62109375 C-0.91982704 4.4130997 -0.46210307 2.20614876 0 0 Z " fill="#326375" transform="translate(169,271)"/>
<path d="M0 0 C0.33 0 0.66 0 1 0 C1.62134891 9.0440786 1.62134891 9.0440786 -0.625 12.5 C-6.60880727 16.27924669 -12.13442284 16.24423002 -19 16 C-19 15.67 -19 15.34 -19 15 C-18.28972656 14.87882812 -17.57945312 14.75765625 -16.84765625 14.6328125 C-15.92855469 14.46523438 -15.00945312 14.29765625 -14.0625 14.125 C-12.68771484 13.88136719 -12.68771484 13.88136719 -11.28515625 13.6328125 C-10.53105469 13.42398437 -9.77695312 13.21515625 -9 13 C-8.67 12.34 -8.34 11.68 -8 11 C-6.35 11 -4.7 11 -3 11 C-3 10.34 -3 9.68 -3 9 C-2.01 9 -1.02 9 0 9 C0 6.03 0 3.06 0 0 Z " fill="#BFEBFC" transform="translate(274,280)"/>
<path d="M0 0 C0.66 0 1.32 0 2 0 C1.90460938 1.134375 1.80921875 2.26875 1.7109375 3.4375 C1.59828685 4.95828374 1.48634561 6.47912015 1.375 8 C1.31054688 8.74378906 1.24609375 9.48757813 1.1796875 10.25390625 C0.80732051 15.60668172 1.46802617 19.85443904 3 25 C1.68 25 0.36 25 -1 25 C-1.02908357 21.58335127 -1.04682691 18.1667345 -1.0625 14.75 C-1.07087891 13.78191406 -1.07925781 12.81382812 -1.08789062 11.81640625 C-1.09111328 10.88183594 -1.09433594 9.94726562 -1.09765625 8.984375 C-1.10289307 8.12553711 -1.10812988 7.26669922 -1.11352539 6.38183594 C-1.00539986 4.11329256 -0.63582423 2.17368285 0 0 Z " fill="#32677B" transform="translate(178,272)"/>
<path d="M0 0 C1.010625 -0.00257813 2.02125 -0.00515625 3.0625 -0.0078125 C5.81714744 0.11673273 8.31838803 0.50389135 11 1.125 C11 1.455 11 1.785 11 2.125 C9.77023437 2.16238281 8.54046875 2.19976562 7.2734375 2.23828125 C5.64059599 2.30397028 4.00778482 2.37041659 2.375 2.4375 C1.56675781 2.46005859 0.75851562 2.48261719 -0.07421875 2.50585938 C-5.08835125 2.73006855 -8.60046736 3.46961865 -13 6.125 C-13.99 5.465 -14.98 4.805 -16 4.125 C-10.66644205 0.62009049 -6.31655245 -0.01611365 0 0 Z " fill="#C0F0FC" transform="translate(305,270.875)"/>
<path d="M0 0 C0.33 0 0.66 0 1 0 C1 1.65 1 3.3 1 5 C1.66 5 2.32 5 3 5 C3.5625 6.9375 3.5625 6.9375 4 9 C3 10 3 10 -0.0625 10.0625 C-1.031875 10.041875 -2.00125 10.02125 -3 10 C-2.01 9.67 -1.02 9.34 0 9 C0 7.68 0 6.36 0 5 C-1.299375 5.5259375 -1.299375 5.5259375 -2.625 6.0625 C-6.24825242 7.068959 -8.3853322 6.86063519 -12 6 C-12 5.67 -12 5.34 -12 5 C-8.12315913 3.80712589 -5.08378077 3 -1 3 C-0.67 2.01 -0.34 1.02 0 0 Z " fill="#355161" transform="translate(129,288)"/>
<path d="M0 0 C0 0.66 0 1.32 0 2 C-0.67546875 2.09796875 -1.3509375 2.1959375 -2.046875 2.296875 C-7.32870217 3.18226799 -10.44951162 3.73941395 -14 8 C-14.99 8 -15.98 8 -17 8 C-19.01151741 8.63106429 -21.01363702 9.29373761 -23 10 C-16.24367667 2.85760105 -9.81435546 0 0 0 Z " fill="#B0F0FD" transform="translate(254,270)"/>
<path d="M0 0 C-6 4 -6 4 -10 4 C-10 4.99 -10 5.98 -10 7 C-10.763125 7.20625 -11.52625 7.4125 -12.3125 7.625 C-15.82229103 9.42070704 -16.52599781 11.43136312 -18 15 C-18.66 15 -19.32 15 -20 15 C-19.08127745 10.18462664 -16.53613202 7.28463988 -13 4 C-8.8772067 1.23805058 -5.06941761 -0.6336772 0 0 Z " fill="#BDEEFB" transform="translate(264,177)"/>
<path d="M0 0 C2.64 0.33 5.28 0.66 8 1 C8.33 2.98 8.66 4.96 9 7 C11.64 7 14.28 7 17 7 C16.01 7.99 15.02 8.98 14 10 C11.0625 9.1875 11.0625 9.1875 8 8 C7.67 7.01 7.34 6.02 7 5 C6.34 5 5.68 5 5 5 C4.34 4.34 3.68 3.68 3 3 C2.34 3 1.68 3 1 3 C0.67 3.66 0.34 4.32 0 5 C0 3.35 0 1.7 0 0 Z " fill="#365362" transform="translate(140,277)"/>
<path d="M0 0 C3 1 3 1 4 3 C4.12514794 5.59609211 4.18517357 8.15370467 4.1875 10.75 C4.19974609 11.45382813 4.21199219 12.15765625 4.22460938 12.8828125 C4.23695499 17.31077388 3.66037829 20.82608462 2 25 C1.67 25 1.34 25 1 25 C1.00523682 24.38479492 1.01047363 23.76958984 1.01586914 23.13574219 C1.03669371 20.34050524 1.04967759 17.54528464 1.0625 14.75 C1.07087891 13.78191406 1.07925781 12.81382812 1.08789062 11.81640625 C1.09111328 10.88183594 1.09433594 9.94726562 1.09765625 8.984375 C1.10289307 8.12553711 1.10812988 7.26669922 1.11352539 6.38183594 C1.00539986 4.11329256 0.63582423 2.17368285 0 0 Z " fill="#2E597D" transform="translate(213,225)"/>
<path d="M0 0 C0.33 1.65 0.66 3.3 1 5 C1.99 5.33 2.98 5.66 4 6 C4 6.66 4 7.32 4 8 C2.1875 7.8125 2.1875 7.8125 0 7 C-1.75 4.4375 -1.75 4.4375 -3 2 C-3.99 2.33 -4.98 2.66 -6 3 C-5.01 4.32 -4.02 5.64 -3 7 C-3.33 7.66 -3.66 8.32 -4 9 C-6 7.8125 -6 7.8125 -8 6 C-8.25 3.3125 -8.25 3.3125 -8 1 C-5.29120665 -0.35439668 -2.99066732 -0.06501451 0 0 Z " fill="#406379" transform="translate(158,241)"/>
<path d="M0 0 C0.33 0.66 0.66 1.32 1 2 C1.99 2.33 2.98 2.66 4 3 C6.32265612 5.58072903 7 6.45176068 7 10 C6.34 10 5.68 10 5 10 C2 6.53846154 2 6.53846154 2 4 C1.01 4.495 1.01 4.495 0 5 C0 6.32 0 7.64 0 9 C-0.99 8.67 -1.98 8.34 -3 8 C-3.33 6.02 -3.66 4.04 -4 2 C-2.68 1.34 -1.36 0.68 0 0 Z " fill="#365564" transform="translate(168,203)"/>
<path d="M0 0 C1.14662109 0.25716797 1.14662109 0.25716797 2.31640625 0.51953125 C4.4375 1.1875 4.4375 1.1875 7.4375 3.1875 C2.6875 4.3125 2.6875 4.3125 0.4375 3.1875 C-4.34639142 2.99989641 -8.84272492 3.41692448 -13.5625 4.1875 C-8.86709604 0.14423548 -6.11191603 -1.43748956 0 0 Z " fill="#35647C" transform="translate(169.5625,168.8125)"/>
<path d="M0 0 C7.75 -0.125 7.75 -0.125 10 1 C10.33 2.32 10.66 3.64 11 5 C6.545 5.495 6.545 5.495 2 6 C1.34 4.02 0.68 2.04 0 0 Z " fill="#3F3E41" transform="translate(150,273)"/>
<path d="M0 0 C1.32 0.33 2.64 0.66 4 1 C3.01 1.804375 3.01 1.804375 2 2.625 C-0.26833699 4.87968669 -0.26833699 4.87968669 -0.375 8.0625 C-0.19767963 11.18542374 -0.19767963 11.18542374 2 14 C1.01 14.33 0.02 14.66 -1 15 C-2.32 13.35 -3.64 11.7 -5 10 C-3.35 6.7 -1.7 3.4 0 0 Z " fill="#BAF0F8" transform="translate(320,199)"/>
<path d="M0 0 C2.31 0.33 4.62 0.66 7 1 C7 1.33 7 1.66 7 2 C5.02 2 3.04 2 1 2 C2.5857241 5.17144821 5.85041629 5.74760648 9 7 C15.86486486 9.72972973 15.86486486 9.72972973 17 12 C11.60308488 10.50723624 6.30094216 8.80304155 1 7 C0.67 4.69 0.34 2.38 0 0 Z " fill="#AAF0FB" transform="translate(269,200)"/>
<path d="M0 0 C1.65 0 3.3 0 5 0 C4.31066647 3.59134257 2.82128141 6.4342523 1.0625 9.625 C0.53785156 10.58664062 0.01320312 11.54828125 -0.52734375 12.5390625 C-2 15 -2 15 -4 17 C-4 15.02 -4 13.04 -4 11 C-3.34 11 -2.68 11 -2 11 C-2 10.34 -2 9.68 -2 9 C-1.34 9 -0.68 9 0 9 C0 7.68 0 6.36 0 5 C0.66 5 1.32 5 2 5 C1.34 3.35 0.68 1.7 0 0 Z " fill="#336070" transform="translate(197,272)"/>
<path d="M0 0 C0.680625 0.763125 1.36125 1.52625 2.0625 2.3125 C5.35898525 5.32843331 7.86306835 6.45879017 12 8 C12 8.33 12 8.66 12 9 C8.37 9.33 4.74 9.66 1 10 C0.67 6.7 0.34 3.4 0 0 Z " fill="#365864" transform="translate(141,282)"/>
<path d="M0 0 C2.475 0.495 2.475 0.495 5 1 C5 1.99 5 2.98 5 4 C8.96 4 12.92 4 17 4 C16.67 4.66 16.34 5.32 16 6 C11.03098006 7.16918116 7.65880159 7.11763709 3 5 C1.125 3.5 1.125 3.5 0 2 C0 1.34 0 0.68 0 0 Z " fill="#C5F4FD" transform="translate(359,235)"/>
<path d="M0 0 C1.5 1.375 1.5 1.375 3 3 C3 3.66 3 4.32 3 5 C6.01264352 5.59222907 8.92416977 6.05823431 12 6 C14.5905727 4.24905348 14.5905727 4.24905348 16 2 C16.042721 3.66611905 16.04063832 5.33382885 16 7 C14.36162655 8.63837345 12.49983422 8.17085921 10.25 8.1875 C6.3986669 8.15991165 3.46011805 7.84539629 0 6 C0 4.02 0 2.04 0 0 Z " fill="#B6EFFB" transform="translate(376,207)"/>
<path d="M0 0 C1.48206495 0.254496 2.96068615 0.52911762 4.4375 0.8125 C5.67306641 1.03873047 5.67306641 1.03873047 6.93359375 1.26953125 C7.95646484 1.63111328 7.95646484 1.63111328 9 2 C9.33 2.99 9.66 3.98 10 5 C10.66 5.165 11.32 5.33 12 5.5 C12.66 5.665 13.32 5.83 14 6 C14.33 6.99 14.66 7.98 15 9 C8.87220249 7.32506868 4.57774144 5.46036345 0 1 C0 0.67 0 0.34 0 0 Z " fill="#BEECFD" transform="translate(246,209)"/>
<path d="M0 0 C7.625 1.75 7.625 1.75 11 4 C8.26747144 4.94587527 6.89518324 4.97816318 4 4.375 C0.97195951 3.68169391 0.97195951 3.68169391 -1.375 5.4375 C-1.91125 5.953125 -2.4475 6.46875 -3 7 C-3.66 6.67 -4.32 6.34 -5 6 C-3.35 4.02 -1.7 2.04 0 0 Z " fill="#316E84" transform="translate(141,185)"/>
<path d="M0 0 C1.73017508 0.45451184 3.45909877 0.91378857 5.1875 1.375 C6.15042969 1.63023437 7.11335937 1.88546875 8.10546875 2.1484375 C10.82210207 2.94766296 13.39137175 3.9031362 16 5 C13.51889985 6.56217417 12.39141793 7.05728067 9.4375 6.625 C8.633125 6.41875 7.82875 6.2125 7 6 C6.01 6 5.02 6 4 6 C1.8125 4.125 1.8125 4.125 0 2 C0 1.34 0 0.68 0 0 Z " fill="#2E6573" transform="translate(183,174)"/>
<path d="M0 0 C0.33 0 0.66 0 1 0 C1.22786458 2.05078125 1.45572917 4.1015625 1.68359375 6.15234375 C1.81886614 8.01140229 1.81886614 8.01140229 3 9 C3.23653523 11.52596259 3.42173692 14.03107207 3.5625 16.5625 C3.60568359 17.27341797 3.64886719 17.98433594 3.69335938 18.71679688 C3.79971777 20.47761912 3.90038846 22.2387832 4 24 C0.12243193 20.12243193 0.07334982 13.95293894 -0.125 8.671875 C-0.125 5.77837996 -0.08944362 2.89201024 0 0 Z " fill="#B8F1FC" transform="translate(222,306)"/>
<path d="M0 0 C1.98 0 3.96 0 6 0 C4.96501431 3.10495707 4.21350711 3.78649289 2 6 C1.67 6.70125 1.34 7.4025 1 8.125 C0 10 0 10 -3 11 C-3 8.69 -3 6.38 -3 4 C-1.35 3.67 0.3 3.34 2 3 C2 2.34 2 1.68 2 1 C1.34 0.67 0.68 0.34 0 0 Z " fill="#363F43" transform="translate(116,299)"/>
<path d="M0 0 C0.125 5.75 0.125 5.75 -1 8 C-5.60853797 7.27991594 -9.67237409 5.68704061 -14 4 C-14 3.67 -14 3.34 -14 3 C-12.56208484 3.14168137 -11.1246763 3.28851043 -9.6875 3.4375 C-8.88699219 3.51871094 -8.08648437 3.59992188 -7.26171875 3.68359375 C-5 4 -5 4 -2 5 C-2.33 3.68 -2.66 2.36 -3 1 C-1 0 -1 0 0 0 Z " fill="#305C6C" transform="translate(167,263)"/>
<path d="M0 0 C2.64 0 5.28 0 8 0 C8.33 1.65 8.66 3.3 9 5 C8.01 5.495 8.01 5.495 7 6 C6.38125 5.360625 5.7625 4.72125 5.125 4.0625 C3.17402388 1.96116416 3.17402388 1.96116416 1 1 C1.0825 2.0725 1.165 3.145 1.25 4.25 C1 8 1 8 -1 10.4375 C-1.99 11.2109375 -1.99 11.2109375 -3 12 C-3 11.01 -3 10.02 -3 9 C-2.34 9 -1.68 9 -1 9 C-0.67 6.03 -0.34 3.06 0 0 Z " fill="#B8EDFC" transform="translate(299,323)"/>
<path d="M0 0 C0.33 0 0.66 0 1 0 C1.30375856 3.34134421 1.32796316 5.40654286 -0.3125 8.375 C-4.61093838 10.97405576 -9.10132815 10.30405549 -14 10 C-14.33 7.03 -14.66 4.06 -15 1 C-14.34 2.32 -13.68 3.64 -13 5 C-11.83333333 6.83333333 -11.83333333 6.83333333 -10 8 C-6.84673574 8.39415803 -4.88924432 8.58260835 -2.1875 6.8125 C-0.72461964 4.57968261 -0.35494045 2.62655933 0 0 Z " fill="#ABE4F7" transform="translate(313,299)"/>
<path d="M0 0 C0.66 0 1.32 0 2 0 C3.19287411 3.87684087 4 6.91621923 4 11 C5.32 10.67 6.64 10.34 8 10 C8.103125 10.61875 8.20625 11.2375 8.3125 11.875 C8.87525373 14.36526484 8.87525373 14.36526484 12 16 C7.25 15.125 7.25 15.125 5 14 C5 13.34 5 12.68 5 12 C4.34 12 3.68 12 3 12 C2.49440092 10.56445975 1.9957251 9.1264798 1.5 7.6875 C1.2215625 6.88699219 0.943125 6.08648437 0.65625 5.26171875 C0 3 0 3 0 0 Z " fill="#B9EFFB" transform="translate(297,225)"/>
<path d="M0 0 C1.44839346 4.47240412 0.05234254 6.82201697 -2 11 C-4.52631579 15.84210526 -4.52631579 15.84210526 -8 17 C-6.51095825 13.10391502 -4.75621287 9.40902982 -2.875 5.6875 C-2.06675781 4.08455078 -2.06675781 4.08455078 -1.2421875 2.44921875 C-0.62730469 1.23685547 -0.62730469 1.23685547 0 0 Z " fill="#32687A" transform="translate(206,272)"/>
<path d="M0 0 C3.875 1.875 3.875 1.875 5 3 C5.46596067 9.17397882 5.46596067 9.17397882 3.625 12.4375 C2 14 2 14 0 14 C0 13.01 0 12.02 0 11 C0.99 11 1.98 11 3 11 C3 8.69 3 6.38 3 4 C2.01 3.67 1.02 3.34 0 3 C0 2.01 0 1.02 0 0 Z " fill="#ADEBF8" transform="translate(268,305)"/>
<path d="M0 0 C6.27 0.33 12.54 0.66 19 1 C18.67 2.65 18.34 4.3 18 6 C17.34 5.67 16.68 5.34 16 5 C16.33 4.01 16.66 3.02 17 2 C16.03900391 2.26876953 16.03900391 2.26876953 15.05859375 2.54296875 C8.85709207 4.06792818 5.58962648 4.1593541 0 1 C0 0.67 0 0.34 0 0 Z " fill="#365E78" transform="translate(115,252)"/>
<path d="M0 0 C2.64 0 5.28 0 8 0 C8 0.66 8 1.32 8 2 C8.9075 1.9175 9.815 1.835 10.75 1.75 C14 2 14 2 16.375 4 C16.91125 4.66 17.4475 5.32 18 6 C13.95295419 5.27595226 10.10929598 4.16553713 6.1875 2.9375 C5.02605469 2.57527344 3.86460937 2.21304687 2.66796875 1.83984375 C1.78753906 1.56269531 0.90710938 1.28554688 0 1 C0 0.67 0 0.34 0 0 Z " fill="#2B6677" transform="translate(125,317)"/>
<path d="M0 0 C3.71888239 0.50712033 6.73454239 1.11608215 10 3 C9.67 4.65 9.34 6.3 9 8 C7.68 7.34 6.36 6.68 5 6 C5 5.01 5 4.02 5 3 C4.01 3 3.02 3 2 3 C2 2.34 2 1.68 2 1 C1.34 0.67 0.68 0.34 0 0 Z " fill="#365D6A" transform="translate(150,310)"/>
<path d="M0 0 C5.44567686 1.02862785 10.11817117 2.24614784 15 5 C15 5.66 15 6.32 15 7 C14.01 7.33 13.02 7.66 12 8 C11.67 7.34 11.34 6.68 11 6 C7.4409373 4.37299991 3.71823233 3.21058727 0 2 C0 1.34 0 0.68 0 0 Z " fill="#2F7587" transform="translate(199,180)"/>
<path d="M0 0 C1.485 0.99 1.485 0.99 3 2 C3.4375 8.125 3.4375 8.125 2 11 C1.34 11 0.68 11 0 11 C-1.125 3.375 -1.125 3.375 0 0 Z " fill="#384654" transform="translate(207,281)"/>
<path d="M0 0 C2.875 -0.125 2.875 -0.125 6 0 C6.66 0.66 7.32 1.32 8 2 C7.625 4.625 7.625 4.625 7 7 C6.01 6.34 5.02 5.68 4 5 C4.66 5 5.32 5 6 5 C6 4.01 6 3.02 6 2 C5.505 2.165 5.01 2.33 4.5 2.5 C0.96555911 3.20688818 -2.39690701 3.06005155 -6 3 C-6 2.67 -6 2.34 -6 2 C-4.02 2 -2.04 2 0 2 C0 1.34 0 0.68 0 0 Z " fill="#365B73" transform="translate(130,233)"/>
<path d="M0 0 C1.36523593 3.10280894 0.89965502 4.30631624 -0.1875 7.625 C-2.05808256 11.10815374 -2.57894075 11.56924644 -6 13 C-3.10933941 3.40546697 -3.10933941 3.40546697 0 0 Z " fill="#C7EFFD" transform="translate(303,186)"/>
<path d="M0 0 C0.99 0 1.98 0 3 0 C3 1.32 3 2.64 3 4 C4.32 4.33 5.64 4.66 7 5 C4.26094655 6.36952673 2.02912668 6.12621361 -1 6 C-1.66 5.67 -2.32 5.34 -3 5 C-3 4.34 -3 3.68 -3 3 C-2.01 3 -1.02 3 0 3 C0 2.01 0 1.02 0 0 Z " fill="#375460" transform="translate(171,328)"/>
<path d="M0 0 C2.75 -0.3125 2.75 -0.3125 6 0 C9.96249623 3.53411825 10.59374103 6.82019812 11 12 C10.34 12 9.68 12 9 12 C8.71125 10.865625 8.4225 9.73125 8.125 8.5625 C7.75375 7.386875 7.3825 6.21125 7 5 C6.34 4.67 5.68 4.34 5 4 C5 3.01 5 2.02 5 1 C3.35 1 1.7 1 0 1 C0 0.67 0 0.34 0 0 Z " fill="#336478" transform="translate(218,188)"/>
<path d="M0 0 C0.78375 0.04125 1.5675 0.0825 2.375 0.125 C0.93246343 3.49091866 -0.95764727 5.63547079 -3.625 8.125 C-4.25 5.25 -4.25 5.25 -4.625 2.125 C-2.625 0.125 -2.625 0.125 0 0 Z " fill="#375B67" transform="translate(190.625,316.875)"/>
<path d="M0 0 C0.99 0 1.98 0 3 0 C3 1.65 3 3.3 3 5 C-1.07369424 7.03684712 -3.58937864 7.0257259 -8 6 C-8 5.67 -8 5.34 -8 5 C-5.03 4.34 -2.06 3.68 1 3 C0.67 2.01 0.34 1.02 0 0 Z " fill="#B7EFFB" transform="translate(370,303)"/>
<path d="M0 0 C0.99 -0.33 1.98 -0.66 3 -1 C3.33 0.32 3.66 1.64 4 3 C1.03 3 -1.94 3 -5 3 C-5.33 2.01 -5.66 1.02 -6 0 C-3 -1 -3 -1 0 0 Z " fill="#3E3C40" transform="translate(130,250)"/>
<path d="M0 0 C0.99 0 1.98 0 3 0 C3.66 2.31 4.32 4.62 5 7 C3.0625 6.625 3.0625 6.625 1 6 C0.67 5.34 0.34 4.68 0 4 C-0.33 5.32 -0.66 6.64 -1 8 C-2.2077558 4.37673261 -1.54311128 3.35853631 0 0 Z " fill="#3A4D61" transform="translate(195,241)"/>
<path d="M0 0 C1.32 0.66 2.64 1.32 4 2 C3.54917531 3.46067199 3.08906463 4.91848032 2.625 6.375 C2.36976563 7.18710938 2.11453125 7.99921875 1.8515625 8.8359375 C1 11 1 11 -1 13 C-0.67 8.71 -0.34 4.42 0 0 Z " fill="#3A586C" transform="translate(186,242)"/>
<path d="M0 0 C0.66 0 1.32 0 2 0 C1.67 1.65 1.34 3.3 1 5 C2.65 5 4.3 5 6 5 C6 5.66 6 6.32 6 7 C6.66 7.33 7.32 7.66 8 8 C3.15340923 7.40895235 -0.60748167 6.02055843 -5 4 C-4.360625 3.71125 -3.72125 3.4225 -3.0625 3.125 C-0.84793921 2.17176549 -0.84793921 2.17176549 0 0 Z " fill="#375E6F" transform="translate(180,210)"/>
<path d="M0 0 C1 4 1 4 1 8 C3.42672567 9.78969026 3.42672567 9.78969026 6 11 C5.01 11.495 5.01 11.495 4 12 C1.64018187 11.06421005 -0.69631264 10.06652192 -3 9 C-2.01 6.03 -1.02 3.06 0 0 Z " fill="#39677D" transform="translate(117,223)"/>
<path d="M0 0 C4.571279 0.54855348 8.67435795 1.41744803 13 3 C13 3.33 13 3.66 13 4 C5.57142857 3 5.57142857 3 2 2 C2.33 4.31 2.66 6.62 3 9 C0.23776722 6.23776722 0.42143709 3.79293383 0 0 Z " fill="#366C8C" transform="translate(107,295)"/>
<path d="M0 0 C5.62917348 0.40208382 8.00386479 2.28930302 12 6 C11.67 6.66 11.34 7.32 11 8 C10.34 7.34 9.68 6.68 9 6 C6.93125966 5.3574765 6.93125966 5.3574765 5 5 C5 4.34 5 3.68 5 3 C2.525 2.01 2.525 2.01 0 1 C0 0.67 0 0.34 0 0 Z " fill="#B7EDFC" transform="translate(262,272)"/>
<path d="M0 0 C-2.51830747 3.12270126 -3.7261549 3.94523098 -7.75 4.75 C-9.35875 4.87375 -9.35875 4.87375 -11 5 C-8.01992403 0.52988604 -5.41406094 -1.93359319 0 0 Z " fill="#C1EEFC" transform="translate(357,273)"/>
<path d="M0 0 C1.875 0.1875 1.875 0.1875 4 1 C4.268125 1.804375 4.53625 2.60875 4.8125 3.4375 C5.204375 4.283125 5.59625 5.12875 6 6 C9.53514293 7.37967524 9.53514293 7.37967524 13 8 C9.94736336 8.98120464 8.05263664 8.98120464 5 8 C5 7.01 5 6.02 5 5 C4.34 5 3.68 5 3 5 C3 4.34 3 3.68 3 3 C2.01 2.67 1.02 2.34 0 2 C0 1.34 0 0.68 0 0 Z " fill="#2A7081" transform="translate(174,193)"/>
<path d="M0 0 C0.33 0 0.66 0 1 0 C1.06058594 0.75925781 1.12117188 1.51851563 1.18359375 2.30078125 C1.26738281 3.29464844 1.35117188 4.28851563 1.4375 5.3125 C1.55931641 6.79169922 1.55931641 6.79169922 1.68359375 8.30078125 C1.91812559 11.09375599 1.91812559 11.09375599 3 14 C1.68 14 0.36 14 -1 14 C-1.08333357 9.1666528 -0.95261487 4.76307437 0 0 Z " fill="#2F6E83" transform="translate(107,257)"/>
<path d="M0 0 C0.66 0 1.32 0 2 0 C2 0.99 2 1.98 2 3 C-1.25923117 5.17282078 -3.12273569 5.76261647 -7 6 C-8.32 5.01 -9.64 4.02 -11 3 C-7.7 3 -4.4 3 -1 3 C-0.67 2.01 -0.34 1.02 0 0 Z " fill="#D0F9FE" transform="translate(317,236)"/>
<path d="M0 0 C2.02350324 3.03525486 2.32124018 4.19426202 2.625 7.6875 C2.69976562 8.49574219 2.77453125 9.30398438 2.8515625 10.13671875 C2.90054687 10.75160156 2.94953125 11.36648438 3 12 C3.99 12.33 4.98 12.66 6 13 C5.67 14.32 5.34 15.64 5 17 C4.67 16.01 4.34 15.02 4 14 C3.34 14 2.68 14 2 14 C1.66179834 12.4176994 1.32964061 10.83410625 1 9.25 C0.814375 8.36828125 0.62875 7.4865625 0.4375 6.578125 C0 4 0 4 0 0 Z " fill="#AAF0FD" transform="translate(277,316)"/>
<path d="M0 0 C0.33 0.66 0.66 1.32 1 2 C-0.8125 5 -0.8125 5 -3 8 C-3.99 8 -4.98 8 -6 8 C-6 8.99 -6 9.98 -6 11 C-6.66 11 -7.32 11 -8 11 C-6.52670958 5.99081256 -3.72484762 3.48192278 0 0 Z " fill="#B5E9FB" transform="translate(288,276)"/>
<path d="M0 0 C1.6510403 0.39553053 3.2958515 0.81713897 4.9375 1.25 C5.85402344 1.48203125 6.77054688 1.7140625 7.71484375 1.953125 C10 3 10 3 10.94140625 4.921875 C11 7 11 7 9 10 C9 8.35 9 6.7 9 5 C8.01 5 7.02 5 6 5 C6 4.34 6 3.68 6 3 C3.03 2.505 3.03 2.505 0 2 C0 1.34 0 0.68 0 0 Z " fill="#366B84" transform="translate(154,271)"/>
<path d="M0 0 C6.625 0.75 6.625 0.75 10 3 C9.37351562 3.04898438 8.74703125 3.09796875 8.1015625 3.1484375 C7.28429687 3.22320312 6.46703125 3.29796875 5.625 3.375 C4.81289062 3.44460937 4.00078125 3.51421875 3.1640625 3.5859375 C0.79665809 3.82892588 0.79665809 3.82892588 -1 6 C-0.67 4.02 -0.34 2.04 0 0 Z " fill="#3A6E85" transform="translate(112,236)"/>
<path d="M0 0 C0.33 1.32 0.66 2.64 1 4 C0.34 4 -0.32 4 -1 4 C-1 6.64 -1 9.28 -1 12 C-2.32 11.67 -3.64 11.34 -5 11 C-3.77472971 6.94718288 -2.30119506 3.55639236 0 0 Z " fill="#326881" transform="translate(127,204)"/>
<path d="M0 0 C2.97 0 5.94 0 9 0 C9 1.32 9 2.64 9 4 C8.01 4.33 7.02 4.66 6 5 C5.34 4.34 4.68 3.68 4 3 C4.66 3 5.32 3 6 3 C6 2.34 6 1.68 6 1 C2.88214887 1.64644661 2.88214887 1.64644661 2 4 C1.34 4 0.68 4 0 4 C0 2.68 0 1.36 0 0 Z " fill="#3D4B52" transform="translate(121,298)"/>
<path d="M0 0 C0.33 0 0.66 0 1 0 C0.67 2.97 0.34 5.94 0 9 C-2.64 8.34 -5.28 7.68 -8 7 C-8 6.67 -8 6.34 -8 6 C-5.69 6 -3.38 6 -1 6 C-0.67 4.02 -0.34 2.04 0 0 Z " fill="#377790" transform="translate(162,281)"/>
<path d="M0 0 C0.33 0 0.66 0 1 0 C1.05395478 1.62463842 1.09277195 3.24978541 1.125 4.875 C1.14820313 5.77992188 1.17140625 6.68484375 1.1953125 7.6171875 C1 10 1 10 -1 12 C-1.66 11.67 -2.32 11.34 -3 11 C-2.01 7.37 -1.02 3.74 0 0 Z " fill="#36677B" transform="translate(210,260)"/>
<path d="M0 0 C0.66 0 1.32 0 2 0 C5 5.75 5 5.75 5 8 C5.99 8.33 6.98 8.66 8 9 C6.68 9.33 5.36 9.66 4 10 C3.896875 9.360625 3.79375 8.72125 3.6875 8.0625 C3.460625 7.381875 3.23375 6.70125 3 6 C2.01 5.67 1.02 5.34 0 5 C0 3.35 0 1.7 0 0 Z " fill="#317288" transform="translate(157,225)"/>
<path d="M0 0 C2.875 0.25 2.875 0.25 6 1 C7.375 3.0625 7.375 3.0625 8 5 C7.01 5.99 6.02 6.98 5 8 C5 6.68 5 5.36 5 4 C2.525 3.01 2.525 3.01 0 2 C0 1.34 0 0.68 0 0 Z " fill="#336E82" transform="translate(187,202)"/>
<path d="M0 0 C0.66 0 1.32 0 2 0 C1.34 1.98 0.68 3.96 0 6 C-1.98 6.33 -3.96 6.66 -6 7 C-5.04882866 5.8274869 -4.08882991 4.66212985 -3.125 3.5 C-2.59132812 2.8503125 -2.05765625 2.200625 -1.5078125 1.53125 C-0.76144531 0.77328125 -0.76144531 0.77328125 0 0 Z " fill="#396787" transform="translate(211,192)"/>
<path d="M0 0 C1.98 0 3.96 0 6 0 C6.33 0.99 6.66 1.98 7 3 C6.34 3.66 5.68 4.32 5 5 C5 4.34 5 3.68 5 3 C3.68 2.67 2.36 2.34 1 2 C1 3.98 1 5.96 1 8 C0.67 8 0.34 8 0 8 C0 5.36 0 2.72 0 0 Z " fill="#A7E1F8" transform="translate(358,322)"/>
<path d="M0 0 C0.66 0 1.32 0 2 0 C2.33 1.32 2.66 2.64 3 4 C5.97 4.495 5.97 4.495 9 5 C9 5.66 9 6.32 9 7 C5.04179141 6.43454163 2.3340947 5.19097652 -1 3 C-0.67 2.01 -0.34 1.02 0 0 Z " fill="#375C72" transform="translate(114,309)"/>
<path d="M0 0 C0.66 0 1.32 0 2 0 C1.49172849 4.37113496 0.54826592 7.38995662 -2 11 C-2.33 11 -2.66 11 -3 11 C-3 9.02 -3 7.04 -3 5 C-2.01 5 -1.02 5 0 5 C0 3.35 0 1.7 0 0 Z " fill="#BCF1FA" transform="translate(388,306)"/>
<path d="M0 0 C1.65 0 3.3 0 5 0 C3.35 1.98 1.7 3.96 0 6 C-1.65 5.67 -3.3 5.34 -5 5 C-5 4.67 -5 4.34 -5 4 C-3.35 4 -1.7 4 0 4 C0 2.68 0 1.36 0 0 Z " fill="#356780" transform="translate(188,289)"/>
<path d="M0 0 C0.99 0 1.98 0 3 0 C2.32829194 3.8063457 1.27253436 7.35206816 0 11 C-2 7.25 -2 7.25 -2 5 C-1.34 5 -0.68 5 0 5 C0 3.35 0 1.7 0 0 Z " fill="#336172" transform="translate(203,261)"/>
<path d="M0 0 C2 3 2 3 1.828125 5.19140625 C1.63734375 5.97386719 1.4465625 6.75632812 1.25 7.5625 C1.06953125 8.34753906 0.8890625 9.13257813 0.703125 9.94140625 C0 12 0 12 -2 14 C-2 11.69 -2 9.38 -2 7 C-1.34 7 -0.68 7 0 7 C0 4.69 0 2.38 0 0 Z " fill="#375D6E" transform="translate(219,257)"/>
<path d="M0 0 C1.258125 -0.020625 2.51625 -0.04125 3.8125 -0.0625 C4.52019531 -0.07410156 5.22789062 -0.08570313 5.95703125 -0.09765625 C8 0 8 0 11 1 C10.67 1.99 10.34 2.98 10 4 C6.7 3.01 3.4 2.02 0 1 C0 0.67 0 0.34 0 0 Z " fill="#3D607C" transform="translate(169,231)"/>
<path d="M0 0 C0.66 0 1.32 0 2 0 C2 1.98 2 3.96 2 6 C1.01 6 0.02 6 -1 6 C-2.33981486 6.3062434 -3.67511887 6.63451555 -5 7 C-3.47793991 4.37098712 -2.15634036 2.15634036 0 0 Z " fill="#355361" transform="translate(205,199)"/>
<path d="M0 0 C0.99 0.33 1.98 0.66 3 1 C2.01 1.495 2.01 1.495 1 2 C0.566875 2.99 0.566875 2.99 0.125 4 C-1 6 -1 6 -2.875 6.875 C-5.47386397 7.02787435 -6.8019253 6.33454536 -9 5 C-6.69 5 -4.38 5 -2 5 C-1.34 3.35 -0.68 1.7 0 0 Z " fill="#337287" transform="translate(201,194)"/>
<path d="M0 0 C2.3773161 2.3773161 2.67028521 3.70285207 3 7 C2.34 7.66 1.68 8.32 1 9 C-1.14809171 5.77786243 -1.29386153 4.72224599 -1 1 C-0.67 0.67 -0.34 0.34 0 0 Z " fill="#384C5B" transform="translate(111,301)"/>
<path d="M0 0 C0.99 0 1.98 0 3 0 C3.33 1.65 3.66 3.3 4 5 C4.99 5.33 5.98 5.66 7 6 C7 6.66 7 7.32 7 8 C5.1875 7.8125 5.1875 7.8125 3 7 C0 2.82142857 0 2.82142857 0 0 Z " fill="#385B71" transform="translate(155,241)"/>
<path d="M0 0 C1.32 0.33 2.64 0.66 4 1 C3.67 3.31 3.34 5.62 3 8 C2.67 7.34 2.34 6.68 2 6 C0.68 6 -0.64 6 -2 6 C-2 5.34 -2 4.68 -2 4 C-1.01 3.67 -0.02 3.34 1 3 C0.67 2.01 0.34 1.02 0 0 Z " fill="#403D3F" transform="translate(170,238)"/>
<path d="M0 0 C3.3 0.99 6.6 1.98 10 3 C10 3.33 10 3.66 10 4 C7.03 3.67 4.06 3.34 1 3 C1 3.66 1 4.32 1 5 C0.34 5 -0.32 5 -1 5 C-0.67 3.35 -0.34 1.7 0 0 Z " fill="#30687C" transform="translate(119,218)"/>
<path d="M0 0 C0.99 0.33 1.98 0.66 3 1 C1.84414715 4.91211733 0.64465038 7.8745041 -2 11 C-2 9.35 -2 7.7 -2 6 C-1.34 6 -0.68 6 0 6 C0 4.02 0 2.04 0 0 Z " fill="#376981" transform="translate(205,291)"/>
<path d="M0 0 C1 3 1 3 0.22265625 5.04296875 C-0.16019531 5.75066406 -0.54304687 6.45835937 -0.9375 7.1875 C-1.31777344 7.90292969 -1.69804687 8.61835938 -2.08984375 9.35546875 C-2.54037109 10.16951172 -2.54037109 10.16951172 -3 11 C-3.33 11 -3.66 11 -4 11 C-4.125 5.25 -4.125 5.25 -3 3 C-2.34 3 -1.68 3 -1 3 C-0.67 2.01 -0.34 1.02 0 0 Z " fill="#347489" transform="translate(184,221)"/>
<path d="M0 0 C0 0.66 0 1.32 0 2 C-3.63423209 4.32590854 -6.77088331 4.16265833 -11 4 C-9.68 3.67 -8.36 3.34 -7 3 C-7 2.34 -7 1.68 -7 1 C-4.50935112 0.31292445 -2.62113708 0 0 0 Z " fill="#A5E4F9" transform="translate(291,200)"/>
<path d="M0 0 C4.29 0.33 8.58 0.66 13 1 C13 1.66 13 2.32 13 3 C8.17639811 3.19294408 4.50353262 2.75747614 0 1 C0 0.67 0 0.34 0 0 Z " fill="#CFFCFE" transform="translate(271,200)"/>
<path d="M0 0 C3.39417765 3.12621626 5.6062718 5.56541027 7 10 C6.01 9.67 5.02 9.34 4 9 C3.67 8.01 3.34 7.02 3 6 C2.34 5.67 1.68 5.34 1 5 C0.375 2.4375 0.375 2.4375 0 0 Z " fill="#BAEEFA" transform="translate(403,183)"/>
<path d="M0 0 C4.75 0.875 4.75 0.875 7 2 C7 2.99 7 3.98 7 5 C6.34 5 5.68 5 5 5 C4.34 4.34 3.68 3.68 3 3 C2.34 3 1.68 3 1 3 C0.67 3.66 0.34 4.32 0 5 C0 3.35 0 1.7 0 0 Z " fill="#326A7B" transform="translate(140,277)"/>
<path d="M0 0 C2.125 0.9375 2.125 0.9375 4 2 C3.34 3.32 2.68 4.64 2 6 C-0.475 5.01 -0.475 5.01 -3 4 C-2.67 3.01 -2.34 2.02 -2 1 C-1.34 0.67 -0.68 0.34 0 0 Z " fill="#3B403B" transform="translate(191,226)"/>
<path d="M0 0 C0 0.66 0 1.32 0 2 C-3.82320557 3.42258812 -6.91281305 4.24042276 -11 4 C-10.67 3.01 -10.34 2.02 -10 1 C-2.25 0 -2.25 0 0 0 Z " fill="#35516F" transform="translate(142,221)"/>
<path d="M0 0 C1.98 0.99 1.98 0.99 4 2 C4 2.66 4 3.32 4 4 C4.99 4.33 5.98 4.66 7 5 C7.33 5.99 7.66 6.98 8 8 C4.22699642 6.9802693 3.19793856 6.34127338 1.1875 2.875 C0.795625 1.92625 0.40375 0.9775 0 0 Z " fill="#B7E9FD" transform="translate(338,328)"/>
<path d="M0 0 C0.33 0 0.66 0 1 0 C1.37211538 7.56634615 1.37211538 7.56634615 -0.51171875 9.76171875 C-1.00285156 10.17035156 -1.49398437 10.57898438 -2 11 C-1.85892253 9.54119891 -1.71197585 8.08296449 -1.5625 6.625 C-1.48128906 5.81289063 -1.40007812 5.00078125 -1.31640625 4.1640625 C-1 2 -1 2 0 0 Z " fill="#BAF0FB" transform="translate(224,289)"/>
<path d="M0 0 C2.79872437 2.52788007 4.45773019 4.20411134 5 8 C3.0625 7.375 3.0625 7.375 1 6 C0.25 2.875 0.25 2.875 0 0 Z " fill="#B6F3FA" transform="translate(385,280)"/>
<path d="M0 0 C1.32 0.33 2.64 0.66 4 1 C3.67 2.65 3.34 4.3 3 6 C2.01 5.67 1.02 5.34 0 5 C0 3.35 0 1.7 0 0 Z " fill="#3C403C" transform="translate(146,251)"/>
<path d="M0 0 C1.37432457 3.81756824 0.67975039 7.07255329 0 11 C-0.99 11 -1.98 11 -3 11 C-1.125 3.375 -1.125 3.375 0 0 Z " fill="#366273" transform="translate(179,243)"/>
<path d="M0 0 C0.66 0.33 1.32 0.66 2 1 C2 1.66 2 2.32 2 3 C1.34 3 0.68 3 0 3 C0 3.66 0 4.32 0 5 C-1.65 5.33 -3.3 5.66 -5 6 C-5 5.34 -5 4.68 -5 4 C-4.34 4 -3.68 4 -3 4 C-3 3.34 -3 2.68 -3 2 C-2.01 1.34 -1.02 0.68 0 0 Z " fill="#B6EAFE" transform="translate(309,180)"/>
<path d="M0 0 C2.31 0.33 4.62 0.66 7 1 C6.34 2.98 5.68 4.96 5 7 C4.34 6.67 3.68 6.34 3 6 C3.33 4.68 3.66 3.36 4 2 C2.68 1.34 1.36 0.68 0 0 Z " fill="#D3F6FE" transform="translate(389,177)"/>
<path d="M0 0 C2.31 0.33 4.62 0.66 7 1 C3.78817851 2.90608098 1.46117397 3.22266247 -2.25 3.125 C-3.14203125 3.10695313 -4.0340625 3.08890625 -4.953125 3.0703125 C-5.96632812 3.03550781 -5.96632812 3.03550781 -7 3 C-7 2.67 -7 2.34 -7 2 C-4.69 2 -2.38 2 0 2 C0 1.34 0 0.68 0 0 Z " fill="#C9F8FE" transform="translate(254,270)"/>
<path d="M0 0 C1.64826111 2.96687001 2.44271087 5.65626525 3 9 C1.68 8.67 0.36 8.34 -1 8 C-0.67 5.36 -0.34 2.72 0 0 Z " fill="#326C7B" transform="translate(110,243)"/>
<path d="M0 0 C3.95820859 0.56545837 6.6659053 1.80902348 10 4 C9.01 4.495 9.01 4.495 8 5 C6.0546875 4.22265625 6.0546875 4.22265625 3.875 3.0625 C3.15054688 2.68222656 2.42609375 2.30195313 1.6796875 1.91015625 C1.12539062 1.60980469 0.57109375 1.30945313 0 1 C0 0.67 0 0.34 0 0 Z " fill="#B9ECF8" transform="translate(247,235)"/>
<path d="M0 0 C0.33 0.66 0.66 1.32 1 2 C1.66 2.33 2.32 2.66 3 3 C5 4 5 4 6 6 C5.01 6.33 4.02 6.66 3 7 C1.68 5.35 0.36 3.7 -1 2 C-0.67 1.34 -0.34 0.68 0 0 Z " fill="#CCF0FD" transform="translate(316,207)"/>
<path d="M0 0 C4.87664009 -0.34833144 7.77050005 0.58314288 12 3 C8.69564916 4.12377697 6.9493138 3.89554742 3.75 2.5625 C3.04359375 2.27503906 2.3371875 1.98757812 1.609375 1.69140625 C1.07828125 1.46324219 0.5471875 1.23507813 0 1 C0 0.67 0 0.34 0 0 Z " fill="#B5F2FE" transform="translate(330,177)"/>
<path d="M0 0 C0 0.33 0 0.66 0 1 C-5.57432514 2.66251802 -9.3067505 3.18609365 -15 2 C-15 1.67 -15 1.34 -15 1 C-9.94997778 -0.03590199 -5.12583611 -0.10251672 0 0 Z " fill="#B3EBFC" transform="translate(330,176)"/>
<path d="M0 0 C0.33 0 0.66 0 1 0 C1.33 3.63 1.66 7.26 2 11 C-0.97 10.505 -0.97 10.505 -4 10 C-2.68 9.67 -1.36 9.34 0 9 C0 6.03 0 3.06 0 0 Z " fill="#3C7F9B" transform="translate(160,319)"/>
<path d="M0 0 C1.32 0 2.64 0 4 0 C4 3.3 4 6.6 4 10 C3.01 10.495 3.01 10.495 2 11 C2.06510417 9.01432292 2.13020833 7.02864583 2.1953125 5.04296875 C2.13254462 2.68640281 2.13254462 2.68640281 0 0 Z " fill="#D4F8FE" transform="translate(311,296)"/>
<path d="M0 0 C3.37503669 1.1858237 5.64722731 2.27573689 8 5 C5.125 4.75 5.125 4.75 2 4 C0.625 1.9375 0.625 1.9375 0 0 Z " fill="#B3EFFA" transform="translate(375,273)"/>
<path d="M0 0 C0.66 0 1.32 0 2 0 C2.33 1.65 2.66 3.3 3 5 C3.99 5.33 4.98 5.66 6 6 C4.35 6.33 2.7 6.66 1 7 C0.67 4.69 0.34 2.38 0 0 Z " fill="#3C535F" transform="translate(144,254)"/>
<path d="M0 0 C1.125 1.5 1.125 1.5 2 4 C1.57598348 6.7773082 0.81108065 9.29639783 0 12 C-1.125 10.5 -1.125 10.5 -2 8 C-1.57598348 5.2226918 -0.81108065 2.70360217 0 0 Z " fill="#356B81" transform="translate(213,250)"/>
<path d="M0 0 C0.33 0 0.66 0 1 0 C1 2.31 1 4.62 1 7 C-0.98 7.99 -0.98 7.99 -3 9 C-2.01 6.03 -1.02 3.06 0 0 Z " fill="#336776" transform="translate(192,248)"/>
<path d="M0 0 C0.99 0.33 1.98 0.66 3 1 C2.01 2.98 1.02 4.96 0 7 C-0.99 5.68 -1.98 4.36 -3 3 C-2.01 2.67 -1.02 2.34 0 2 C0 1.34 0 0.68 0 0 Z " fill="#375D70" transform="translate(189,210)"/>
<path d="M0 0 C3.37462715 0.54723683 5.08235 1.0549 8 3 C5.69 3.33 3.38 3.66 1 4 C0.67 2.68 0.34 1.36 0 0 Z " fill="#35637A" transform="translate(134,203)"/>
<path d="M0 0 C2 3 2 3 2 7 C1.34 7 0.68 7 0 7 C-3 3.53846154 -3 3.53846154 -3 1 C-2.01 0.67 -1.02 0.34 0 0 Z " fill="#2A7483" transform="translate(182,189)"/>
<path d="M0 0 C2.31 0.66 4.62 1.32 7 2 C6.01 2.495 6.01 2.495 5 3 C5 3.66 5 4.32 5 5 C5.66 5.33 6.32 5.66 7 6 C4 6 4 6 1.8125 4.125 C0 2 0 2 0 0 Z " fill="#3E5B6D" transform="translate(183,174)"/>
<path d="M0 0 C0.33 0 0.66 0 1 0 C1.0270043 1.45823212 1.04639787 2.91660675 1.0625 4.375 C1.07410156 5.18710937 1.08570313 5.99921875 1.09765625 6.8359375 C1 9 1 9 0 11 C-0.66 11 -1.32 11 -2 11 C-2 9.68 -2 8.36 -2 7 C-1.34 7 -0.68 7 0 7 C0 4.69 0 2.38 0 0 Z " fill="#C9F8FE" transform="translate(385,323)"/>
<path d="M0 0 C2 2 2 2 2.125 5.125 C2.08375 6.07375 2.0425 7.0225 2 8 C1.01 8.495 1.01 8.495 0 9 C-0.87890625 2.84765625 -0.87890625 2.84765625 -1 1 C-0.67 0.67 -0.34 0.34 0 0 Z " fill="#A6E7F3" transform="translate(327,321)"/>
<path d="M0 0 C1.65 0 3.3 0 5 0 C4.01 1.98 3.02 3.96 2 6 C1.34 5.67 0.68 5.34 0 5 C0 3.35 0 1.7 0 0 Z " fill="#C6EFF9" transform="translate(242,298)"/>
<path d="M0 0 C1.32 0.33 2.64 0.66 4 1 C3.01 1 2.02 1 1 1 C0.71125 1.5775 0.4225 2.155 0.125 2.75 C-0.91666667 4.83333333 -1.95833333 6.91666667 -3 9 C-3 7.02 -3 5.04 -3 3 C-2.01 2.67 -1.02 2.34 0 2 C0 1.34 0 0.68 0 0 Z " fill="#B7EBFE" transform="translate(359,294)"/>
<path d="M0 0 C2.50037734 2.17424117 3.43628586 3.73045798 4 7 C2.68 7 1.36 7 0 7 C0 4.69 0 2.38 0 0 Z " fill="#2F5D6B" transform="translate(177,290)"/>
<path d="M0 0 C0.99 0.33 1.98 0.66 3 1 C2.34 2.32 1.68 3.64 1 5 C0.01 5 -0.98 5 -2 5 C-1.34 3.35 -0.68 1.7 0 0 Z " fill="#C7ECF9" transform="translate(345,234)"/>
<path d="M0 0 C2.64 0 5.28 0 8 0 C7.01 1.485 7.01 1.485 6 3 C3.03 2.505 3.03 2.505 0 2 C0 1.34 0 0.68 0 0 Z " fill="#2D5966" transform="translate(142,206)"/>
<path d="M0 0 C2.475 0.495 2.475 0.495 5 1 C5 3.64 5 6.28 5 9 C4.731875 8.443125 4.46375 7.88625 4.1875 7.3125 C2.89877353 4.80287477 1.47073522 2.40665764 0 0 Z " fill="#B5EAFA" transform="translate(388,200)"/>
<path d="M0 0 C0.99 0.33 1.98 0.66 3 1 C2.34 1 1.68 1 1 1 C1 1.66 1 2.32 1 3 C-1.5 4.625 -1.5 4.625 -4 6 C-4.33 4.68 -4.66 3.36 -5 2 C-3.35 2 -1.7 2 0 2 C0 1.34 0 0.68 0 0 Z " fill="#306178" transform="translate(208,188)"/>
<path d="M0 0 C2.31 0.66 4.62 1.32 7 2 C5.68 3.32 4.36 4.64 3 6 C2.566875 5.0409375 2.566875 5.0409375 2.125 4.0625 C1.17176549 1.84793921 1.17176549 1.84793921 -1 1 C-0.67 0.67 -0.34 0.34 0 0 Z " fill="#415B6A" transform="translate(172,187)"/>
<path d="" fill="#00FFFF" transform="translate(0,0)"/>
<path d="" fill="#00FFFF" transform="translate(0,0)"/>
<path d="" fill="#00FFFF" transform="translate(0,0)"/>
<path d="" fill="#00FFFF" transform="translate(0,0)"/>
<path d="" fill="#00FFFF" transform="translate(0,0)"/>
<path d="" fill="#00FFFF" transform="translate(0,0)"/>
<path d="" fill="#00FFFF" transform="translate(0,0)"/>
<path d="" fill="#00FFFF" transform="translate(0,0)"/>
<path d="" fill="#00FFFF" transform="translate(0,0)"/>
<path d="" fill="#00FFFF" transform="translate(0,0)"/>
<path d="" fill="#00FFFF" transform="translate(0,0)"/>
<path d="" fill="#00FFFF" transform="translate(0,0)"/>
<path d="" fill="#00FFFF" transform="translate(0,0)"/>
<path d="" fill="#00FFFF" transform="translate(0,0)"/>
<path d="" fill="#00FFFF" transform="translate(0,0)"/>
<path d="" fill="#00FFFF" transform="translate(0,0)"/>
<path d="" fill="#00FFFF" transform="translate(0,0)"/>
<path d="" fill="#00FFFF" transform="translate(0,0)"/>
<path d="" fill="#00FFFF" transform="translate(0,0)"/>
<path d="" fill="#00FFFF" transform="translate(0,0)"/>
<path d="" fill="#00FFFF" transform="translate(0,0)"/>
<path d="" fill="#00FFFF" transform="translate(0,0)"/>
<path d="" fill="#00FFFF" transform="translate(0,0)"/>
<path d="" fill="#00FFFF" transform="translate(0,0)"/>
<path d="" fill="#00FFFF" transform="translate(0,0)"/>
<path d="" fill="#00FFFF" transform="translate(0,0)"/>
<path d="" fill="#00FFFF" transform="translate(0,0)"/>
<path d="" fill="#00FFFF" transform="translate(0,0)"/>
<path d="" fill="#00FFFF" transform="translate(0,0)"/>
<path d="" fill="#00FFFF" transform="translate(0,0)"/>
<path d="" fill="#00FFFF" transform="translate(0,0)"/>
<path d="" fill="#00FFFF" transform="translate(0,0)"/>
<path d="" fill="#00FFFF" transform="translate(0,0)"/>
<path d="" fill="#00FFFF" transform="translate(0,0)"/>
<path d="" fill="#00FFFF" transform="translate(0,0)"/>
<path d="" fill="#00FFFF" transform="translate(0,0)"/>
<path d="" fill="#00FFFF" transform="translate(0,0)"/>
<path d="" fill="#00FFFF" transform="translate(0,0)"/>
<path d="" fill="#00FFFF" transform="translate(0,0)"/>
<path d="" fill="#00FFFF" transform="translate(0,0)"/>
<path d="" fill="#00FFFF" transform="translate(0,0)"/>
<path d="" fill="#00FFFF" transform="translate(0,0)"/>
<path d="" fill="#00FFFF" transform="translate(0,0)"/>
<path d="" fill="#00FFFF" transform="translate(0,0)"/>
<path d="" fill="#00FFFF" transform="translate(0,0)"/>
<path d="" fill="#00FFFF" transform="translate(0,0)"/>
<path d="" fill="#00FFFF" transform="translate(0,0)"/>
<path d="" fill="#00FFFF" transform="translate(0,0)"/>
<path d="" fill="#00FFFF" transform="translate(0,0)"/>
<path d="" fill="#00FFFF" transform="translate(0,0)"/>
<path d="" fill="#00FFFF" transform="translate(0,0)"/>
<path d="" fill="#00FFFF" transform="translate(0,0)"/>
<path d="" fill="#00FFFF" transform="translate(0,0)"/>
<path d="" fill="#00FFFF" transform="translate(0,0)"/>
<path d="" fill="#00FFFF" transform="translate(0,0)"/>
<path d="" fill="#00FFFF" transform="translate(0,0)"/>
<path d="" fill="#00FFFF" transform="translate(0,0)"/>
<path d="" fill="#00FFFF" transform="translate(0,0)"/>
<path d="" fill="#00FFFF" transform="translate(0,0)"/>
<path d="" fill="#00FFFF" transform="translate(0,0)"/>
<path d="" fill="#00FFFF" transform="translate(0,0)"/>
<path d="" fill="#00FFFF" transform="translate(0,0)"/>
<path d="" fill="#00FFFF" transform="translate(0,0)"/>
<path d="" fill="#00FFFF" transform="translate(0,0)"/>
<path d="" fill="#00FFFF" transform="translate(0,0)"/>
<path d="" fill="#00FFFF" transform="translate(0,0)"/>
<path d="" fill="#00FFFF" transform="translate(0,0)"/>
<path d="" fill="#00FFFF" transform="translate(0,0)"/>
<path d="" fill="#00FFFF" transform="translate(0,0)"/>
<path d="" fill="#00FFFF" transform="translate(0,0)"/>
<path d="" fill="#00FFFF" transform="translate(0,0)"/>
<path d="" fill="#00FFFF" transform="translate(0,0)"/>
<path d="" fill="#00FFFF" transform="translate(0,0)"/>
</svg>
