<svg width="116" height="110" viewBox="0 0 116 110" fill="none" xmlns="http://www.w3.org/2000/svg">
<path d="M114.975 79.55C114.975 82.5438 114.517 85.189 113.6 87.4857C112.725 89.7823 111.475 91.7098 109.85 93.2682C111.225 95.3598 111.912 97.3898 111.912 99.3583C111.912 101.04 111.246 102.434 109.912 103.541C108.621 104.649 107.142 105.202 105.475 105.202C104.517 105.202 103.642 105.059 102.85 104.772C102.058 104.485 101.204 103.993 100.287 103.295C99.4958 102.68 98.7458 101.839 98.0375 100.773C97.3291 99.7069 96.7666 98.5996 96.35 97.4513C94.975 97.2873 93.6 96.9387 92.225 96.4055C92.475 97.7179 92.6 98.7227 92.6 99.4199C92.6 103.316 90.5375 105.264 86.4125 105.264C82.9541 105.264 80.5166 103.275 79.1 99.2968C77.6833 95.3188 76.975 90.459 76.975 84.7174C76.975 80.8214 77.6833 77.1714 79.1 73.7675C80.5583 70.3226 82.7666 67.5543 85.725 65.4628C88.6833 63.3302 92.2875 62.2639 96.5375 62.2639C99.9541 62.2639 103.058 62.9816 105.85 64.417C108.642 65.8114 110.85 67.8209 112.475 70.4456C114.142 73.0703 114.975 76.1051 114.975 79.55ZM91.6 82.4413C91.6 83.8357 92.1625 85.066 93.2875 86.1323C94.4125 87.1576 95.7041 87.6702 97.1625 87.6702C98.6625 87.6702 99.9541 87.1576 101.037 86.1323C102.162 85.066 102.725 83.8357 102.725 82.4413C102.725 81.0059 102.162 79.7756 101.037 78.7503C99.9541 77.684 98.6625 77.1509 97.1625 77.1509C95.7041 77.1509 94.4125 77.684 93.2875 78.7503C92.1625 79.8166 91.6 81.0469 91.6 82.4413Z" fill="black"/>
<path d="M74.975 79.55C74.975 82.5438 74.5287 85.189 73.6362 87.4857C72.7842 89.7823 71.5671 91.7098 69.9848 93.2682C71.3237 95.3598 71.9931 97.3898 71.9931 99.3583C71.9931 101.04 71.3439 102.434 70.0457 103.541C68.788 104.649 67.3478 105.202 65.725 105.202C64.7919 105.202 63.9399 105.059 63.1691 104.772C62.3982 104.485 61.5665 103.993 60.674 103.295C59.9032 102.68 59.1729 101.839 58.4832 100.773C57.7935 99.7069 57.2458 98.5996 56.8401 97.4513C55.5013 97.2873 54.1625 96.9387 52.8237 96.4055C53.0671 97.7179 53.1888 98.7227 53.1888 99.4199C53.1888 103.316 51.1806 105.264 47.1641 105.264C43.7968 105.264 41.4234 103.275 40.0441 99.2968C38.6647 95.3188 37.975 90.459 37.975 84.7174C37.975 80.8214 38.6647 77.1714 40.0441 73.7675C41.464 70.3226 43.6142 67.5543 46.4947 65.4628C49.3752 63.3302 52.8845 62.2639 57.0227 62.2639C60.3494 62.2639 63.3719 62.9816 66.0901 64.417C68.8083 65.8114 70.9585 67.8209 72.5408 70.4456C74.1636 73.0703 74.975 76.1051 74.975 79.55ZM52.2151 82.4413C52.2151 83.8357 52.7628 85.066 53.8582 86.1323C54.9536 87.1576 56.2113 87.6702 57.6312 87.6702C59.0918 87.6702 60.3494 87.1576 61.4043 86.1323C62.4997 85.066 63.0473 83.8357 63.0473 82.4413C63.0473 81.0059 62.4997 79.7756 61.4043 78.7503C60.3494 77.684 59.0918 77.1509 57.6312 77.1509C56.2113 77.1509 54.9536 77.684 53.8582 78.7503C52.7628 79.8166 52.2151 81.0469 52.2151 82.4413Z" fill="black"/>
<path d="M23.0965 84.1638C25.5202 84.1638 27.5125 84.2868 29.0736 84.5329C30.6757 84.7379 31.9697 85.2301 32.9556 86.0093C33.9826 86.7475 34.4961 87.8753 34.4961 89.3927C34.4961 91.5663 33.654 93.0016 31.9697 93.6988C30.3265 94.396 27.9233 94.7446 24.7602 94.7446L19.6457 94.6831L15.7637 94.7446C15.928 96.303 16.0102 97.5334 16.0102 98.4356C16.0102 102.988 14.2027 105.264 10.5877 105.264C7.58882 105.264 5.22674 103.603 3.50138 100.281C1.81711 96.9592 0.974976 91.7713 0.974976 84.7174C0.974976 80.3703 1.87873 76.4947 3.68624 73.0908C5.53483 69.6869 8.0407 67.0417 11.2038 65.1552C14.367 63.2277 17.8382 62.2639 21.6176 62.2639C26.3007 62.2639 29.8541 63.0636 32.2778 64.6631C34.7426 66.2625 35.975 68.4976 35.975 71.3684C35.975 73.3779 35.482 74.9158 34.4961 75.9821C33.5513 77.0074 32.2162 77.7045 30.4908 78.0736C28.8065 78.4017 26.5677 78.5658 23.7743 78.5658C21.5149 78.5658 19.5636 79.0169 17.9204 79.9191C16.3183 80.8214 15.4351 82.0722 15.2707 83.6716L15.2091 84.2253C15.7021 84.1843 16.4415 84.1638 17.4274 84.1638H19.6457H23.0965Z" fill="white"/>
<path d="M114.975 17.55C114.975 20.5438 114.517 23.189 113.6 25.4857C112.725 27.7823 111.475 29.7098 109.85 31.2682C111.225 33.3598 111.912 35.3898 111.912 37.3583C111.912 39.0398 111.246 40.4342 109.912 41.5415C108.621 42.6488 107.142 43.2024 105.475 43.2024C104.517 43.2024 103.642 43.0589 102.85 42.7718C102.058 42.4847 101.204 41.9926 100.287 41.2954C99.4958 40.6802 98.7458 39.8395 98.0375 38.7732C97.3291 37.7069 96.7666 36.5996 96.35 35.4513C94.975 35.2873 93.6 34.9387 92.225 34.4055C92.475 35.7179 92.6 36.7227 92.6 37.4199C92.6 41.3159 90.5375 43.2639 86.4125 43.2639C82.9541 43.2639 80.5166 41.2749 79.1 37.2968C77.6833 33.3188 76.975 28.459 76.975 22.7174C76.975 18.8214 77.6833 15.1714 79.1 11.7675C80.5583 8.32257 82.7666 5.55433 85.725 3.46277C88.6833 1.3302 92.2875 0.263916 96.5375 0.263916C99.9541 0.263916 103.058 0.981607 105.85 2.41699C108.642 3.81136 110.85 5.8209 112.475 8.44561C114.142 11.0703 114.975 14.1051 114.975 17.55ZM91.6 20.4413C91.6 21.8357 92.1625 23.066 93.2875 24.1323C94.4125 25.1576 95.7041 25.6702 97.1625 25.6702C98.6625 25.6702 99.9541 25.1576 101.037 24.1323C102.162 23.066 102.725 21.8357 102.725 20.4413C102.725 19.0059 102.162 17.7756 101.037 16.7503C99.9541 15.684 98.6625 15.1509 97.1625 15.1509C95.7041 15.1509 94.4125 15.684 93.2875 16.7503C92.1625 17.8166 91.6 19.0469 91.6 20.4413Z" fill="black"/>
<path d="M74.975 17.55C74.975 20.5438 74.5287 23.189 73.6362 25.4857C72.7842 27.7823 71.5671 29.7098 69.9848 31.2682C71.3237 33.3598 71.9931 35.3898 71.9931 37.3583C71.9931 39.0398 71.3439 40.4342 70.0457 41.5415C68.788 42.6488 67.3478 43.2024 65.725 43.2024C64.7919 43.2024 63.9399 43.0589 63.1691 42.7718C62.3982 42.4847 61.5665 41.9926 60.674 41.2954C59.9032 40.6802 59.1729 39.8395 58.4832 38.7732C57.7935 37.7069 57.2458 36.5996 56.8401 35.4513C55.5013 35.2873 54.1625 34.9387 52.8237 34.4055C53.0671 35.7179 53.1888 36.7227 53.1888 37.4199C53.1888 41.3159 51.1806 43.2639 47.1641 43.2639C43.7968 43.2639 41.4234 41.2749 40.0441 37.2968C38.6647 33.3188 37.975 28.459 37.975 22.7174C37.975 18.8214 38.6647 15.1714 40.0441 11.7675C41.464 8.32257 43.6142 5.55433 46.4947 3.46277C49.3752 1.3302 52.8845 0.263916 57.0227 0.263916C60.3494 0.263916 63.3719 0.981607 66.0901 2.41699C68.8083 3.81136 70.9585 5.8209 72.5408 8.44561C74.1636 11.0703 74.975 14.1051 74.975 17.55ZM52.2151 20.4413C52.2151 21.8357 52.7628 23.066 53.8582 24.1323C54.9536 25.1576 56.2113 25.6702 57.6312 25.6702C59.0918 25.6702 60.3494 25.1576 61.4043 24.1323C62.4997 23.066 63.0473 21.8357 63.0473 20.4413C63.0473 19.0059 62.4997 17.7756 61.4043 16.7503C60.3494 15.684 59.0918 15.1509 57.6312 15.1509C56.2113 15.1509 54.9536 15.684 53.8582 16.7503C52.7628 17.8166 52.2151 19.0469 52.2151 20.4413Z" fill="black"/>
<path d="M18.3523 43.2639C15.6123 43.2639 12.9762 42.8953 10.4438 42.1582C7.953 41.3801 5.91881 40.3153 4.34128 38.9639C2.76374 37.5715 1.97498 35.9949 1.97498 34.2339C1.97498 32.5549 2.4939 31.2239 3.53175 30.2411C4.5696 29.2582 5.8773 28.7668 7.45483 28.7668C8.49268 28.7668 9.38523 28.9101 10.1325 29.1968C10.9213 29.4425 11.7723 29.8111 12.6856 30.3025C13.3498 30.6301 13.9103 30.8963 14.3669 31.1011C14.8651 31.2649 15.384 31.3468 15.9237 31.3468C17.2937 31.3468 17.9786 30.8144 17.9786 29.7496C17.9786 29.3401 17.688 28.992 17.1068 28.7053C16.5256 28.3777 15.5501 27.9477 14.1801 27.4153C11.7308 26.4734 9.7381 25.552 8.20208 24.6511C5.83578 23.2587 4.19598 21.7434 3.28267 20.1053C2.41087 18.4673 1.97498 16.4196 1.97498 13.9625C1.97498 11.5873 2.74299 9.35534 4.27901 7.26677C5.81502 5.13725 7.91148 3.43773 10.5684 2.1682C13.2253 0.898678 16.1313 0.263916 19.2863 0.263916C22.3584 0.263916 25.1606 0.734868 27.6929 1.67677C30.2668 2.57773 32.2802 3.84725 33.7332 5.48535C35.2277 7.08249 35.975 8.86392 35.975 10.8296C35.975 13.082 35.29 14.7815 33.92 15.9282C32.5916 17.0339 31.0971 17.5868 29.4365 17.5868C28.0665 17.5868 27.0287 17.5049 26.323 17.3411C25.6587 17.1772 24.9945 16.952 24.3303 16.6653C23.7906 16.4606 23.3339 16.3173 22.9603 16.2353C22.5867 16.1125 22.0678 16.0511 21.4035 16.0511C20.8639 16.0511 20.3449 16.2353 19.8468 16.6039C19.3901 16.9315 19.1618 17.4025 19.1618 18.0168C19.1618 18.4673 19.4316 18.8563 19.9713 19.1839C20.511 19.4706 21.1337 19.7368 21.8394 19.9825C22.5452 20.2282 23.0434 20.4125 23.3339 20.5353C27.1948 21.9277 30.0385 23.5249 31.8651 25.3268C33.6917 27.0877 34.605 29.3811 34.605 32.2068C34.605 35.6877 33.1728 38.4111 30.3083 40.3768C27.4854 42.3015 23.5 43.2639 18.3523 43.2639Z" fill="white"/>
</svg>
