<svg width="64" height="61" viewBox="0 0 64 61" fill="none" xmlns="http://www.w3.org/2000/svg">
<path d="M63.9792 44.4625C63.9792 46.14 63.722 47.6222 63.2076 48.909C62.7165 50.1959 62.015 51.276 61.103 52.1492C61.8747 53.3212 62.2605 54.4587 62.2605 55.5617C62.2605 56.5039 61.8864 57.2852 61.1381 57.9056C60.4132 58.5261 59.583 58.8363 58.6476 58.8363C58.1098 58.8363 57.6187 58.7559 57.1744 58.595C56.7301 58.4342 56.2508 58.1584 55.7363 57.7677C55.292 57.423 54.8711 56.952 54.4736 56.3545C54.076 55.757 53.7603 55.1366 53.5265 54.4931C52.7548 54.4012 51.9831 54.2059 51.2115 53.9071C51.3518 54.6425 51.4219 55.2055 51.4219 55.5962C51.4219 57.7792 50.2644 58.8708 47.9494 58.8708C46.0085 58.8708 44.6405 57.7563 43.8454 55.5272C43.0504 53.2982 42.6528 50.5751 42.6528 47.3579C42.6528 45.1748 43.0504 43.1296 43.8454 41.2223C44.6639 39.292 45.9032 37.7409 47.5635 36.5689C49.2238 35.374 51.2465 34.7765 53.6317 34.7765C55.5492 34.7765 57.2914 35.1786 58.8581 35.9829C60.4248 36.7642 61.6642 37.8902 62.5762 39.3609C63.5116 40.8317 63.9792 42.5322 63.9792 44.4625ZM50.8607 46.0825C50.8607 46.8638 51.1764 47.5532 51.8078 48.1507C52.4391 48.7252 53.164 49.0124 53.9825 49.0124C54.8243 49.0124 55.5492 48.7252 56.1572 48.1507C56.7886 47.5532 57.1043 46.8638 57.1043 46.0825C57.1043 45.2782 56.7886 44.5888 56.1572 44.0144C55.5492 43.4169 54.8243 43.1181 53.9825 43.1181C53.164 43.1181 52.4391 43.4169 51.8078 44.0144C51.1764 44.6118 50.8607 45.3012 50.8607 46.0825Z" fill="#3D3F42"/>
<path d="M41.5303 44.4625C41.5303 46.14 41.2799 47.6222 40.779 48.909C40.3008 50.1959 39.6177 51.276 38.7298 52.1492C39.4811 53.3212 39.8568 54.4587 39.8568 55.5617C39.8568 56.5039 39.4925 57.2852 38.7639 57.9056C38.0581 58.5261 37.2498 58.8363 36.339 58.8363C35.8153 58.8363 35.3372 58.7559 34.9046 58.595C34.472 58.4342 34.0052 58.1584 33.5043 57.7677C33.0717 57.423 32.6619 56.952 32.2748 56.3545C31.8877 55.757 31.5803 55.1366 31.3527 54.4931C30.6013 54.4012 29.8499 54.2059 29.0985 53.9071C29.2352 54.6425 29.3035 55.2055 29.3035 55.5962C29.3035 57.7792 28.1764 58.8708 25.9223 58.8708C24.0325 58.8708 22.7005 57.7563 21.9263 55.5272C21.1522 53.2982 20.7651 50.5751 20.7651 47.3579C20.7651 45.1748 21.1522 43.1296 21.9263 41.2223C22.7233 39.292 23.93 37.7409 25.5466 36.5689C27.1632 35.374 29.1327 34.7765 31.4551 34.7765C33.3222 34.7765 35.0184 35.1786 36.5439 35.9829C38.0695 36.7642 39.2762 37.8902 40.1642 39.3609C41.0749 40.8317 41.5303 42.5322 41.5303 44.4625ZM28.757 46.0825C28.757 46.8638 29.0644 47.5532 29.6791 48.1507C30.2939 48.7252 30.9997 49.0124 31.7966 49.0124C32.6163 49.0124 33.3222 48.7252 33.9141 48.1507C34.5289 47.5532 34.8363 46.8638 34.8363 46.0825C34.8363 45.2782 34.5289 44.5888 33.9141 44.0144C33.3222 43.4169 32.6163 43.1181 31.7966 43.1181C30.9997 43.1181 30.2939 43.4169 29.6791 44.0144C29.0644 44.6118 28.757 45.3012 28.757 46.0825Z" fill="#3D3F42"/>
<path d="M12.415 47.0477C13.7753 47.0477 14.8934 47.1166 15.7695 47.2545C16.6687 47.3694 17.3949 47.6452 17.9482 48.0818C18.5246 48.4954 18.8128 49.1274 18.8128 49.9776C18.8128 51.1955 18.3401 51.9998 17.3949 52.3905C16.4727 52.7811 15.124 52.9765 13.3488 52.9765L10.4784 52.942L8.29975 52.9765C8.39197 53.8497 8.43808 54.5391 8.43808 55.0446C8.43808 57.5954 7.42367 58.8708 5.39484 58.8708C3.71183 58.8708 2.38618 57.9401 1.41787 56.0787C0.472625 54.2174 0 51.3104 0 47.3579C0 44.9221 0.507207 42.7505 1.52162 40.8431C2.55909 38.9358 3.96544 37.4536 5.74066 36.3966C7.51589 35.3165 9.46402 34.7765 11.5851 34.7765C14.2133 34.7765 16.2076 35.2246 17.5678 36.1208C18.9511 37.017 19.6427 38.2694 19.6427 39.878C19.6427 41.004 19.3661 41.8657 18.8128 42.4632C18.2825 43.0377 17.5332 43.4284 16.5649 43.6352C15.6197 43.819 14.3632 43.9109 12.7955 43.9109C11.5274 43.9109 10.4323 44.1637 9.51013 44.6693C8.61099 45.1748 8.11531 45.8757 8.02309 46.7719L7.98851 47.0822C8.26517 47.0592 8.68016 47.0477 9.23347 47.0477H10.4784H12.415Z" fill="#4AC1F7"/>
<path d="M63.9792 9.72186C63.9792 11.3994 63.722 12.8816 63.2076 14.1684C62.7165 15.4553 62.015 16.5354 61.103 17.4086C61.8747 18.5806 62.2605 19.7181 62.2605 20.8211C62.2605 21.7633 61.8864 22.5446 61.1381 23.165C60.4132 23.7855 59.583 24.0957 58.6476 24.0957C58.1098 24.0957 57.6187 24.0153 57.1744 23.8544C56.7301 23.6936 56.2508 23.4178 55.7363 23.0271C55.292 22.6824 54.8711 22.2114 54.4736 21.6139C54.076 21.0164 53.7603 20.396 53.5265 19.7525C52.7548 19.6606 51.9831 19.4653 51.2115 19.1665C51.3518 19.9019 51.4219 20.4649 51.4219 20.8556C51.4219 23.0386 50.2644 24.1302 47.9494 24.1302C46.0085 24.1302 44.6405 23.0157 43.8454 20.7866C43.0504 18.5576 42.6528 15.8345 42.6528 12.6173C42.6528 10.4342 43.0504 8.38903 43.8454 6.48171C44.6639 4.55141 45.9032 3.00028 47.5635 1.82831C49.2238 0.633362 51.2465 0.0358887 53.6317 0.0358887C55.5492 0.0358887 57.2914 0.438034 58.8581 1.24233C60.4248 2.02364 61.6642 3.14965 62.5762 4.62035C63.5116 6.09106 63.9792 7.79156 63.9792 9.72186ZM50.8607 11.3419C50.8607 12.1232 51.1764 12.8126 51.8078 13.4101C52.4391 13.9846 53.164 14.2719 53.9825 14.2719C54.8243 14.2719 55.5492 13.9846 56.1572 13.4101C56.7886 12.8126 57.1043 12.1232 57.1043 11.3419C57.1043 10.5376 56.7886 9.84825 56.1572 9.27376C55.5492 8.67628 54.8243 8.37754 53.9825 8.37754C53.164 8.37754 52.4391 8.67628 51.8078 9.27376C51.1764 9.87123 50.8607 10.5606 50.8607 11.3419Z" fill="#3D3F42"/>
<path d="M41.5303 9.72186C41.5303 11.3994 41.2799 12.8816 40.779 14.1684C40.3008 15.4553 39.6177 16.5354 38.7298 17.4086C39.4811 18.5806 39.8568 19.7181 39.8568 20.8211C39.8568 21.7633 39.4925 22.5446 38.7639 23.165C38.0581 23.7855 37.2498 24.0957 36.339 24.0957C35.8153 24.0957 35.3372 24.0153 34.9046 23.8544C34.472 23.6936 34.0052 23.4178 33.5043 23.0271C33.0717 22.6824 32.6619 22.2114 32.2748 21.6139C31.8877 21.0164 31.5803 20.396 31.3527 19.7525C30.6013 19.6606 29.8499 19.4653 29.0985 19.1665C29.2352 19.9019 29.3035 20.4649 29.3035 20.8556C29.3035 23.0386 28.1764 24.1302 25.9223 24.1302C24.0325 24.1302 22.7005 23.0157 21.9263 20.7866C21.1522 18.5576 20.7651 15.8345 20.7651 12.6173C20.7651 10.4342 21.1522 8.38903 21.9263 6.48171C22.7233 4.55141 23.93 3.00028 25.5466 1.82831C27.1632 0.633362 29.1327 0.0358887 31.4551 0.0358887C33.3222 0.0358887 35.0184 0.438034 36.5439 1.24233C38.0695 2.02364 39.2762 3.14965 40.1642 4.62035C41.0749 6.09106 41.5303 7.79156 41.5303 9.72186ZM28.757 11.3419C28.757 12.1232 29.0644 12.8126 29.6791 13.4101C30.2939 13.9846 30.9997 14.2719 31.7966 14.2719C32.6163 14.2719 33.3222 13.9846 33.9141 13.4101C34.5289 12.8126 34.8363 12.1232 34.8363 11.3419C34.8363 10.5376 34.5289 9.84825 33.9141 9.27376C33.3222 8.67628 32.6163 8.37754 31.7966 8.37754C30.9997 8.37754 30.2939 8.67628 29.6791 9.27376C29.0644 9.87123 28.757 10.5606 28.757 11.3419Z" fill="#3D3F42"/>
<path d="M9.75256 24.1302C8.21486 24.1302 6.7354 23.9237 5.31419 23.5106C3.91627 23.0746 2.77464 22.478 1.8893 21.7207C1.00395 20.9405 0.561279 20.0571 0.561279 19.0704C0.561279 18.1296 0.852511 17.3838 1.43498 16.833C2.01744 16.2823 2.75134 16.007 3.63669 16.007C4.21915 16.007 4.72007 16.0873 5.13945 16.2479C5.58212 16.3856 6.05974 16.5921 6.57231 16.8675C6.94509 17.051 7.25962 17.2002 7.5159 17.3149C7.79548 17.4067 8.08672 17.4526 8.3896 17.4526C9.15845 17.4526 9.54288 17.1543 9.54288 16.5577C9.54288 16.3282 9.37979 16.1332 9.05361 15.9725C8.72743 15.789 8.17991 15.548 7.41106 15.2497C6.03644 14.7219 4.91811 14.2056 4.05606 13.7008C2.72805 12.9206 1.80775 12.0716 1.29518 11.1537C0.805914 10.2358 0.561279 9.08846 0.561279 7.71164C0.561279 6.38072 0.992303 5.13011 1.85435 3.95982C2.7164 2.76658 3.89297 1.81428 5.38408 1.10292C6.87519 0.391566 8.50609 0.0358887 10.2768 0.0358887C12.0009 0.0358887 13.5735 0.299778 14.9947 0.827558C16.4393 1.33239 17.5692 2.04375 18.3847 2.96162C19.2234 3.85655 19.6428 4.85475 19.6428 5.9562C19.6428 7.21828 19.2584 8.17058 18.4895 8.81309C17.744 9.43266 16.9052 9.74244 15.9733 9.74244C15.2044 9.74244 14.622 9.69655 14.2259 9.60476C13.8531 9.51298 13.4803 9.38677 13.1076 9.22614C12.8047 9.1114 12.5484 9.03109 12.3387 8.9852C12.129 8.91636 11.8378 8.88193 11.465 8.88193C11.1621 8.88193 10.8709 8.9852 10.5913 9.19172C10.335 9.37529 10.2069 9.63918 10.2069 9.98339C10.2069 10.2358 10.3583 10.4538 10.6612 10.6374C10.9641 10.798 11.3136 10.9472 11.7096 11.0848C12.1057 11.2225 12.3853 11.3258 12.5484 11.3946C14.7152 12.1748 16.3111 13.0698 17.3362 14.0794C18.3614 15.0661 18.874 16.3512 18.874 17.9345C18.874 19.885 18.0702 21.411 16.4625 22.5124C14.8782 23.5909 12.6416 24.1302 9.75256 24.1302Z" fill="#4AC1F7"/>
</svg>
