<svg version="1.2" xmlns="http://www.w3.org/2000/svg" viewBox="0 0 103 81" width="103" height="81"><style>.a{fill:#3d3f42}.b{fill:#ff69b4}</style><path class="a" d="m69 54.5q0 2.5-0.8 4.4-0.7 1.9-2.1 3.2 1.2 1.8 1.2 3.5 0 1.4-1.2 2.3-1 0.9-2.5 0.9-0.8 0-1.4-0.2-0.7-0.2-1.5-0.8-0.6-0.5-1.2-1.4-0.6-0.9-1-1.9-1.1-0.1-2.3-0.6 0.2 1.1 0.2 1.7 0 3.3-3.5 3.3-2.9 0-4.1-3.4-1.1-3.3-1.1-8.1 0-3.3 1.1-6.2 1.3-2.9 3.8-4.6 2.5-1.8 6-1.8 2.9 0 5.3 1.2 2.3 1.2 3.7 3.4 1.4 2.2 1.4 5.1zm-13.1 1.6q0 1.2 0.9 2.1 1 0.8 2.2 0.8 1.2 0 2.2-0.8 0.9-0.9 0.9-2.1 0-1.2-0.9-2.1-1-0.9-2.2-0.9-1.2 0-2.2 0.9-0.9 0.9-0.9 2.1z"/><path class="a" d="m46.5 54.5q0 2.5-0.7 4.4-0.7 1.9-2.1 3.2 1.2 1.8 1.2 3.5 0 1.4-1.1 2.3-1.1 0.9-2.5 0.9-0.7 0-1.4-0.2-0.6-0.2-1.4-0.8-0.6-0.5-1.2-1.4-0.6-0.9-0.9-1.9-1.2-0.1-2.3-0.6 0.2 1.1 0.2 1.7 0 3.3-3.4 3.3-2.8 0-4-3.4-1.1-3.3-1.1-8.1 0-3.3 1.1-6.2 1.2-2.9 3.6-4.6 2.5-1.8 6-1.8 2.8 0 5 1.2 2.3 1.2 3.7 3.4 1.3 2.2 1.3 5.1zm-12.7 1.6q0 1.2 0.9 2.1 0.9 0.8 2.1 0.8 1.2 0 2.1-0.8 0.9-0.9 0.9-2.1 0-1.2-0.9-2.1-0.9-0.9-2.1-0.9-1.2 0-2.1 0.9-0.9 0.9-0.9 2.1z"/><path class="b" d="m17.4 57q2.1 0 3.4 0.3 1.3 0.1 2.1 0.8 0.9 0.6 0.9 1.9 0 1.8-1.4 2.4-1.4 0.6-4.1 0.6l-2.8-0.1-2.2 0.1q0.1 1.3 0.1 2 0 3.9-3 3.9-2.5 0-4-2.8-1.4-2.8-1.4-8.7 0-3.7 1.5-6.6 1.6-2.8 4.2-4.4 2.7-1.6 5.9-1.6 3.9 0 6 1.3 2 1.4 2 3.8 0 1.7-0.8 2.6-0.8 0.8-2.2 1.1-1.5 0.3-3.8 0.3-1.9 0-3.3 0.8-1.3 0.7-1.5 2.1v0.3q0.4-0.1 1.2-0.1h1.3z"/><path class="a" d="m69 19.7q0 2.5-0.8 4.5-0.7 1.9-2.1 3.2 1.2 1.8 1.2 3.4 0 1.4-1.2 2.4-1 0.9-2.5 0.9-0.8 0-1.4-0.2-0.7-0.3-1.5-0.9-0.6-0.5-1.2-1.4-0.6-0.9-1-1.8-1.1-0.2-2.3-0.6 0.2 1.1 0.2 1.7 0 3.2-3.5 3.2-2.9 0-4.1-3.3-1.1-3.4-1.1-8.2 0-3.3 1.1-6.1 1.3-2.9 3.8-4.7 2.5-1.8 6-1.8 2.9 0 5.3 1.2 2.3 1.2 3.7 3.4 1.4 2.2 1.4 5.1zm-13.1 1.6q0 1.2 0.9 2.1 1 0.9 2.2 0.9 1.2 0 2.2-0.9 0.9-0.9 0.9-2.1 0-1.2-0.9-2-1-0.9-2.2-0.9-1.2 0-2.2 0.9-0.9 0.9-0.9 2z"/><path class="a" d="m46.5 19.7q0 2.5-0.7 4.5-0.7 1.9-2.1 3.2 1.2 1.8 1.2 3.4 0 1.4-1.1 2.4-1.1 0.9-2.5 0.9-0.7 0-1.4-0.2-0.6-0.3-1.4-0.9-0.6-0.5-1.2-1.4-0.6-0.9-0.9-1.8-1.2-0.2-2.3-0.6 0.2 1.1 0.2 1.7 0 3.2-3.4 3.2-2.8 0-4-3.3-1.1-3.4-1.1-8.2 0-3.3 1.1-6.1 1.2-2.9 3.6-4.7 2.5-1.8 6-1.8 2.8 0 5 1.2 2.3 1.2 3.7 3.4 1.3 2.2 1.3 5.1zm-12.7 1.6q0 1.2 0.9 2.1 0.9 0.9 2.1 0.9 1.2 0 2.1-0.9 0.9-0.9 0.9-2.1 0-1.2-0.9-2-0.9-0.9-2.1-0.9-1.2 0-2.1 0.9-0.9 0.9-0.9 2z"/><path class="b" d="m14.8 34.1q-2.4 0-4.5-0.6-2.1-0.6-3.4-1.8-1.3-1.1-1.3-2.6 0-1.4 0.8-2.3 0.9-0.8 2.2-0.8 0.9 0 1.5 0.2 0.7 0.3 1.5 0.7 0.5 0.2 0.9 0.4 0.4 0.2 0.9 0.2 1.1 0 1.1-0.9 0-0.4-0.4-0.6-0.5-0.3-1.7-0.8-2.1-0.7-3.3-1.5-2-1.2-2.8-2.5-0.7-1.4-0.7-3.5 0-2 1.3-3.7 1.2-1.8 3.5-2.9 2.2-1.1 4.9-1.1 2.6 0 4.7 0.8 2.2 0.8 3.4 2.2 1.2 1.3 1.2 3 0 1.8-1.1 2.8-1.1 0.9-2.5 0.9-1.2 0-1.8-0.1-0.5-0.1-1.1-0.4-0.4-0.1-0.8-0.2-0.3-0.1-0.8-0.1-0.5 0-0.9 0.3-0.4 0.3-0.4 0.8 0 0.4 0.5 0.6 0.4 0.3 1 0.5 0.6 0.2 0.8 0.3 3.3 1.2 4.8 2.7 1.6 1.5 1.6 3.8 0 3-2.4 4.6-2.4 1.6-6.7 1.6z"/><path class="b" d="m44.2 76.3q-0.2-0.1-0.4-0.1h-0.2q-0.1 0-0.2 0-0.1-0.1-0.1-0.1-0.1 0-0.1 0.1-0.2-0.2-0.3-0.2h-0.1q0 0 0 0-0.1 0-0.3-0.2l-0.1-0.1q0 0-0.2-0.2-0.2-0.2-0.1-0.7v-0.1q0-0.1-0.2 0 0-0.1-0.1-0.1 0-0.1-0.1-0.2 0 0-0.3 0.2l-0.2 0.1-0.2 0.3q-0.2 0.2-0.3 0.3-0.1 0-0.1 0h-0.1q-0.1 0-0.1-0.1 0-0.1 0.1-0.3 0.2-0.1 0.2-0.1 0 0 0 0 0.1 0 0.1 0l0.1-0.1q0.3-0.2 0.3-0.4l0.3-0.2q0.1 0 0.2-0.2l0.1-0.1 0.2-0.7q0 0 0.1-0.1 0 0 0.1-0.4 0.1 0 0-0.2 0 0 0 0 0 0 0 0 0.1-0.2 0-0.4 0-0.1 0.2-0.2 0.1-0.1 0.3-0.3 0 0 0.1-0.6 0-0.1 0.2-0.2 0-0.3 0.1-0.5 0.1-0.2 0.3-0.5 0.1-0.5 0.2-0.6 0.3-0.4 0.4-0.7 0.2 0 0.5-0.5 0 0-0.1 0 0 0 0 0 0-0.3 0.5-0.8 0.5-0.6 1.1-1.4 0.1-0.1 0.5-0.5 0.2 0 0.2-0.1 0 0 0 0 0 0 0 0 0.1 0.1 0.1 0.1 0 0 0 0 0 0.2-0.2 0.3-0.4 0.6-0.4 0.5 0 0.1 0.1 0.1 0 0 0-0.1 0.1 0 0.3 0.2 0-0.1 0.1-0.1 0 0 0 0 0-0.1 0.1-0.2 0 0 0.1 0 0.1-0.1 0.2-0.2 0.1-0.2 0.2-0.4 0.1-0.2 0.3-0.3 0-0.1 0-0.2 0.2 0 0.3-0.1 0.1-0.2 0.2-0.1 0.1-0.2 0.1-0.3l0.2-0.1q0.1-0.5 0.4-0.5 0 0 0 0 0 0 0.1 0v-0.1q0-0.1 0.1-0.1 0.1 0 0.1-0.1v-0.1q0-0.3 0.5-0.4 0 0 0-0.3h0.2q0.1-0.1 0.1-0.1 0-0.1 0.2-0.2-0.1-0.3 0.4-1.1-0.1 0.1-0.2 0.1 0 0 0-0.1 0 0 0-0.1 0-0.1 0-0.2 0.1-0.1 0.2-0.2 0.1-0.1 0.2-0.2 0.1 0 0.2-0.1 0.1-0.1 0.2-0.2 0.1-0.1 0.4-0.4 0-0.1 0.1-0.2 0.1-0.1 0.2-0.3 0.3 0 0.4-0.3 0.1-0.3 0.6-0.5 0.2-0.1 0.5-0.3 0 0 0.1-0.3 0.2 0 0.5-0.5 0.1 0 0.4-0.3 0.4-0.2 0.4-0.2h0.2q0 0 0.2 0.1 0.2 0.1 0.6 0.3v0.4l-0.1 0.2 0.3 0.1q0 0 0 0.1 0 0.2-0.1 0.6 0 0.2-0.1 0.4 0 0.1 0.1 0.3l-0.7 1-0.2 0.3q-0.1 0-0.2 0.1-0.4 0.3-0.9 1.2 0 0 0 0 0 0 0 0-0.2 0.1-0.3 0.4l-0.3 0.1q-0.1 0.2-0.2 0.3l-0.1-0.1-0.1 0.4q-0.2 0.1-0.2 0.3 0 0.1-0.1 0.2l-0.4 0.3q-0.1 0.1-0.4 0.3-0.4 0.2-0.4 0.3-0.2 0.3-0.5 0.7-0.3 0.3-0.8 0.8-0.1 0.2-0.3 0.4-0.2 0.2-0.6 0.5-0.1 0.1-0.2 0.3-0.2 0.1-0.4 0.4-0.2 0.1-0.4 0.3-0.3 0.1-0.6 0.4 0 0-0.1 0.1-0.1 0.1-0.3 0.4h-0.1q-0.1 0.1-0.2 0.3-0.2 0.1-0.3 0.4-0.1 0-0.1 0-0.3 0.4-0.6 0.6 0 0 0 0.1-0.1 0-0.2 0.1 0 0.1-0.1 0.2-0.1 0.2-0.3 0.3 0 0 0 0.1h-0.1q-0.1 0.1-0.2 0.3-0.3 0.1-0.3 0.3l-0.3 0.3q-0.3 0.2-0.6 0.6 0 0.1-0.2 0.9 0.1 0.1 0 0.4-0.1 0.3-0.1 0.4 0 0.1 0 0.2 0 0.1 0.2 0.4 0.2 0.2 0.2 0.3 0.1 0.1 0.2 0 0 0.1 0.2 0.2 0.1 0.2 0.4 0.2l0.1-0.1h0.1q0 0.1 0.2 0.1 0 0 0.1 0 0.2-0.1 0.2-0.1 0 0 0 0 0 0 0.1 0.1 0-0.1 0-0.2h0.3q0.7 0 0.9-0.3 0.1 0 0.3-0.1 0.1-0.1 0.4-0.1 0.1-0.1 0.1-0.2 0 0 0-0.1h0.4v-0.1q0.1-0.1 0.4-0.1l0.1-0.2 0.4-0.2q0 0 0.1 0 0.1 0 0.3-0.3 0.1 0 0.2 0 0.2-0.2 0.6-0.6l0.7-0.4h0.3q0 0.1-0.2 0.3l-0.4 0.3q-0.4 0.3-0.4 0.3 0 0-0.1 0-0.2 0.1-0.3 0.3-0.1 0-0.2 0.2 0 0-0.1 0 0 0 0 0 0 0-0.1 0.1l-0.4 0.3q0 0.2-0.3 0.2-0.1 0-0.2-0.1l-0.2 0.1v0.1q0 0.1-0.2 0.2-0.2 0.1-0.3 0.1 0.1 0 0.1 0.1 0 0-0.2 0.3l-0.8 0.4q0 0-0.1 0-0.2 0-0.4 0.2-0.1 0-0.4 0.1-0.3 0.1-0.4 0.1l-0.1-0.1h-0.4q-0.1 0-0.2 0.1 0 0.1-0.1 0.1 0 0 0 0h-0.1q-0.2 0-0.2 0.1zm0-5.3l0.2 0.3 0.1-0.1q0.2-0.1 0.3-0.4 0.2-0.2 0.4-0.5 0 0 0.1-0.1 0.1-0.1 0.1-0.2 0.2-0.2 0.4-0.3 0.2-0.2 0.5-0.5l0.1-0.2q0.1 0 0.1-0.1 0.1 0 0.2-0.1l0.7-0.7q0-0.1 0-0.2 0.3-0.1 0.3-0.3 0.1 0 0.3-0.2 0.1-0.1 0.4-0.4 0.1 0 0.3-0.3 0.1 0 0.2-0.2 0.5-0.8 0.5-0.8h0.1l0.5-0.5q0.1-0.2 0.1-0.4 0.6-0.3 0.7-0.7l0.2-0.2q0-0.1 0.3-0.3 0 0 0 0 0 0 0.1 0 0-0.1 0.1-0.3 0.1-0.2 0.2-0.4h0.2l0.1-0.2q0.1-0.2 0.2-0.3 0.2-0.2 0.3-0.4v-0.1q0.1 0 0.3-0.1 0-0.1 0.1-0.2 0-0.1 0.1-0.2 0.1-0.3 0.3-0.6 0.2-0.3 0.5-0.7 0-0.2 0.3-0.6v-0.1q0 0-0.1 0 0 0-0.1 0.1-0.8 0.6-1.4 1.1-0.5 0.4-0.7 0.6-0.1 0-0.2 0.2 0 0-0.1 0.1 0 0.1-0.2 0.3-0.1 0.1-0.3 0.1-0.1 0.3-0.4 0.5-0.4 0.3-0.4 0.5-0.3 0.1-0.9 0.8-0.4 0.4-1.2 1.4-0.2 0.1-0.5 0.7l-0.2 0.2q0 0.1-0.3 0.3 0 0.1-0.2 0.2-0.1 0.2-0.1 0.2-0.1 0.2-0.3 0.4 0 0-0.1 0.2-0.1 0.1-0.2 0.2-0.1 0.1-0.1 0.1-0.1 0.2-0.1 0.2 0 0.1 0 0.1-0.2 0.2-0.4 0.5-0.1 0.3-0.3 0.7-0.2 0-0.3 0.3-0.1 0.3-0.2 0.3 0 0.1-0.1 0.1v0.2l0.1 0.1q-0.1 0.3-0.3 0.3 0 0.2-0.1 0.3 0 0 0.1 0-0.1 0.2-0.1 0.2-0.1 0.1-0.2 0.1zm8.7-0.2h-0.2q0-0.2 0.3-0.4h0.1q0 0 0 0 0 0 0.2-0.3 0.2-0.3 0.3-0.3 0.1 0 0.2 0.1v0.3q-0.1 0.1-0.2 0.2-0.1 0.1-0.1 0.1-0.1 0-0.2-0.1 0 0-0.1 0.2zm-1.4 1.3h-0.1q0 0-0.1-0.1 0.2-0.1 0.7-0.7 0.1 0.1 0.2-0.2 0.1-0.2 0.2-0.2h0.2 0.1q0 0.1-0.1 0.3-0.1 0.1-0.2 0.3-0.1 0-0.3 0.1-0.1 0.1-0.1 0.2 0 0-0.1 0.1-0.1 0-0.4 0.2zm-0.5 0.4v-0.3q0.1 0 0.1 0 0 0 0 0 0.1 0 0.1 0 0.1 0 0.2 0-0.2 0.3-0.4 0.3zm1.2 3.8q0 0-0.1-0.1 0 0-0.1 0 0 0 0 0-0.1 0-0.2-0.3 0 0-0.2-0.1-0.1-0.4-0.3-0.4v-0.9l0.3-0.3q0.1-0.1 0-0.3 0 0 0.1-0.1 0-0.1 0.1-0.1 0-0.2-0.1-0.3 0.1-0.2 0.2-0.3 0-0.2 0.2-0.4 0 0 0.3-0.4l0.4-0.5q0.1-0.1 0.4-0.4v-0.1q0.1-0.1 0.2-0.2 0.2 0 0.3-0.2 0 0 0-0.1 0-0.1 0.1-0.1 0-0.1 0.1-0.1 0.1 0 0.2 0 0-0.2 0.1-0.3 0.5 0 0.7-0.5 0 0 0.1 0 0.2-0.1 0.2-0.1 0 0 0 0 0 0 0.1 0 0.1 0 0.1-0.1 0.1-0.1 0.3-0.1 0.1-0.2 0.1-0.2 0.1 0 0.1 0.1 0 0 0 0 0.1 0 0.3-0.1 0.2-0.1 0.2-0.1h0.1q-0.1 0.1 0 0.1 0 0 0.1-0.1 0 0 0.1 0 0.1 0 0.1 0 0.1 0.1 0.1 0.1 0.1 0 0.1-0.1 0 0 0.1 0 0 0 0 0-0.1 0 0.1 0.1 0-0.2 0.1-0.2 0.1 0 0.1 0.1 0 0 0.1 0 0 0 0 0h0.1q0.1 0 0.3 0.3 0-0.1 0-0.1 0.3 0.2 0.3 0.3v0.3l-0.1-0.1q-0.2 0.1-0.4 0.1 0 0 0 0 0-0.1-0.1-0.1 0 0-0.1 0.1 0 0-0.1 0 0 0-0.1 0 0-0.1-0.1-0.1 0 0 0 0.1 0 0-0.1 0 0 0 0 0-0.1 0-0.5 0.1-0.3 0.2-0.3 0.2-0.1 0-0.1-0.1l-0.7 0.3h-0.2q-0.1 0-0.2 0.1-0.2 0.1-0.2 0.1-0.1 0-0.1 0-0.1 0-0.3 0.2-0.1 0.1-0.3 0.2 0 0 0 0.1-0.2 0.4-0.4 0.5-0.1 0-0.1 0.1h-0.2q0 0 0 0.3 0 0-0.1 0 0 0-0.1-0.1-0.1 0.2-0.1 0.4h-0.3q-0.1 0.1-0.2 0.3-0.1 0.2-0.2 0.4 0 0.1-0.1 0.3-0.1 0.1-0.1 0.4-0.2 0.2-0.4 0.5v0.3q0 0.1 0 0.2 0 0.1 0 0.1 0.1 0.2 0.3 0.2 0.1 0 0.2 0 0.2-0.1 0.3-0.4l0.1 0.1q0.3-0.1 0.7-0.4 0 0 0.1 0 0.2-0.1 0.2-0.2 0 0 0 0l0.2-0.2q0.3-0.1 0.4-0.4 0 0 0.1 0l0.2-0.2q0-0.1 0-0.1 0.1 0 0.1 0 0-0.1 0.1-0.1l0.2-0.4q0.1-0.1 0.4-0.1 0.1-0.1 0.1-0.2 0.1-0.1 0.2-0.1 0-0.1-0.1-0.2 0 0-0.1-0.1 0-0.1 0.1-0.2-0.1 0.1-0.1-0.1v-0.2q0.1 0 0.3-0.1 0.1-0.1 0.3-0.2 0.1-0.1 0.2-0.1 0 0 0 0-0.1 0 0 0.1 0.1-0.2 0.2-0.4 0.1-0.2 0.2-0.4l0.3-0.2q0 0 0.1 0.2-0.3 0.4-0.3 0.6 0 0.1 0.3 0.2 0 0 0 0 0 0 0 0.1 0.1 0.1 0.2 0.2 0.1 0.1 0.1 0.1-0.2 0.4-0.2 0.7l0.1 0.1q-0.1 0-0.1 0.2 0.1 0.2 0.1 0.5 0.1 0.2 0.1 0.5l0.3 0.3v0.1q0 0.5 0.3 0.8l0.1-0.1v0.1q0.2 0.1 0.5 0.3h0.3q0.1 0.2 0.2 0.2 0.6 0 0.6-0.3 0 0 0 0.1 0.4-0.2 1.2-1.1 0.5-0.7 0.5-0.6h0.2v0.2q0 0-0.3 0.4 0 0.1-0.2 0.3 0 0 0 0.1l-0.2 0.1v0.1q-0.3 0.1-0.5 0.3-0.2 0.2-0.2 0.2 0 0-0.2 0.3-0.2 0-0.2 0.1 0-0.1 0-0.1l-0.1 0.1q0 0-0.1 0 0 0.1-0.1 0.1 0 0-0.1 0-0.1 0-0.1 0.1l-0.1 0.1h-0.2q0-0.1 0-0.1-0.3 0-0.5 0.2v-0.1h-0.5v-0.2q0 0.1-0.1 0.1 0 0-0.2-0.1-0.1-0.1-0.2-0.1-0.2-0.3-0.4-0.6-0.2-0.3-0.3-0.2 0 0 0.1-0.1-0.1-0.1-0.2-0.3-0.2-0.2-0.9-1.6-0.1 0.1-0.3 0.3-0.2 0.3-0.5 0.6 0 0-0.1 0.1 0 0.1-0.1 0.2l-0.2 0.2q0 0 0 0.1 0 0.1-0.1 0.2 0 0-0.2 0.2-0.1 0.1-0.2 0.1-0.1 0-0.1-0.1-0.1 0.1-0.2 0.2-0.1 0.1-0.2 0.3 0 0 0.2 0v0.2q0 0-0.2 0.2v0.1q-0.1 0.1-0.4 0.4-0.1 0-0.2 0 0 0-0.1 0-0.5 0.2-0.3 0.2-0.1 0-0.2 0h-0.2q-0.1 0-0.1 0zm10.8-0.3q-0.1 0-0.7-0.2h-0.1q0 0 0 0-0.8 0-0.9-1.2 0-0.1 0-0.2 0 0 0-0.2 0.1-0.1 0.1-0.3v-0.1q0.1-0.1 0.2-0.4 0-0.1-0.1-0.1 0.3-0.1 0.3-0.4 0 0 0.2 0 0-0.1 0-0.1 0-0.1 0-0.2h0.1q0.3 0 0.3-0.4 0.2 0 0.3-0.2h0.1q0.1-0.2 0.4-0.6h0.2q0.4-0.4 0.5-0.4 0.1 0 0.1-0.1 0.1 0 0.3-0.2 0-0.1 0.1-0.1v-0.1q-0.1 0-0.3-0.4-0.1-0.2-0.3-0.6-0.2-0.3-0.4-0.8-0.1-0.1-0.2-0.4-0.1-0.2-0.1-0.2 0 0 0-0.1 0 0 0-0.1l-0.2-0.4v-0.3l-0.2-0.3q0-0.3-0.1-0.6 0-0.4-0.1-0.8v-0.1q0-0.2-0.1-0.7v-0.2 0.1q-0.1-0.1-0.1-0.1l0.1-1.2q0.1 0 0.1-0.1l-0.1-0.1q0-0.1 0.2-0.5v-0.1l0.1-0.2q-0.1-0.1-0.1-0.2l0.1-0.2v-0.1q0.2-0.3 0.3-0.5 0.1-0.3 0.4-0.7 0.1 0 0.1-0.1 0-0.1 0.7-0.9 0.2-0.1 0.3-0.1 0.2-0.1 0.4-0.3 0.2 0 0.8-0.3l0.1 0.1q0.1-0.1 1.2-0.1 1 0.1 1.4 0.5h0.3q0.1 0.2 0.6 0.5 0.2 0.2 0.4 0.2 0 0.3 0.3 0.4l-0.1 0.1q0 0 0.3 0.3 0.1 0 0.1 0.2 0.1 0 0.1 0 0.1 0.2 0.3 0.5 0.1 0.4 0.2 0.8 0.1 0.3 0.2 0.6v0.7q0 0.1 0 0.3 0.1 0.2 0.1 0.3l-0.1 1.2v0.1q-0.1 0.2-0.2 0.5 0 0.4-0.1 1.1l-0.2 0.6q0 0.3-0.2 0.5 0 0 0 0.2 0 0.2-0.1 0.4-0.1 0.1-0.1 0.3 0 0.2-0.3 0.3 0 0.2 0 0.3 0 0.1 0 0.1 0 0-0.3 0.6-0.1 0.1-0.3 0.2 0 0.3-0.3 0.7-0.2 0.3-0.5 0.6-0.2 0.2-0.5 0.8-0.1 0-0.1 0 0 0.1-0.1 0.1l0.1 0.3h-0.2v0.1q0.1 0.1 0.3 0.2 0.2 0.1 0.5 0.2v0.1q0.1 0.1 0.3 0.3h0.1q0-0.1 0-0.1 0 0 0.1 0.1 0 0.1 0 0.1 0.1 0 0.1 0l0.2 0.1q0.1 0 0.1 0.1h0.2q0.1 0 0-0.1 0 0 0 0 0 0 0 0 0.1 0.2 0.3 0.2 0-0.1 0.1-0.1 0 0 0.1 0l0.3 0.1q0.1 0 0.2 0 0.2-0.1 0.2-0.1h0.1q0.1 0 0.2 0 0.1 0 0.2-0.1-0.1 0 0.1 0 0.3 0 0.6-0.4 0.1 0.1 0.1 0.1 0.1 0 0.1-0.1h0.1v0.2q-0.2 0.2-0.3 0.3l-0.1 0.1q-0.8 0.5-1.7 0.5 0 0-0.2-0.1l-0.4 0.1q-0.2 0-0.4-0.1-0.3-0.2-0.5-0.1 0-0.1-0.2-0.2-0.1-0.1-0.3-0.2-0.1-0.1-0.2-0.2 0 0-0.2-0.1l-0.6-0.4q0.2 0-1.2 1-0.2 0.1-0.5 0.4-0.1 0-1 0.6 0 0-0.3 0.1-0.3 0.1-0.4 0.1h-0.1v-0.1q-0.1 0.1-0.7 0.2zm4.4-3.2v0.2l0.4-0.4q0 0 0-0.1 0-0.1 0-0.2 0.1-0.4 0.7-1.1 0.1-0.1 0.1-0.2 0-0.1 0.1-0.2 0 0-0.1-0.4l0.5-0.5q0 0-0.1-0.2 0.1-0.1 0.2-0.2 0.1-0.1 0.2-0.2l0.2-0.7q0 0 0-0.1 0-0.1-0.1-0.2l0.1-0.1v-0.1q0.1-0.2 0.2-0.8 0 0-0.1-0.2 0.1-0.1 0.1-0.2 0-0.2 0.1-0.4v-0.6q-0.1-0.1-0.1-0.2 0-0.1 0-0.3l0.1-0.4q0-0.1-0.1-0.4-0.1-0.3-0.1-0.5-0.1 0-0.1 0v-0.1q0-0.1 0-0.1 0-0.1 0-0.2 0 0 0-0.1v-0.1q0-0.3-0.2-0.8l-0.2-0.3q0-0.1-0.2-0.4 0-0.3-0.2-0.6-0.3-1-0.6-1-0.1 0-0.1 0.1l0.1 0.3q0 0.1-0.1 0.1-0.2-0.2-0.5-0.5-0.2-0.2-0.5-0.5l-0.4-0.2q-0.1 0-0.2 0 0-0.1-0.1-0.2v0.1q0 0-0.1 0 0 0-0.1-0.1-0.1 0-0.2 0 0-0.1-0.1 0h-0.1q-0.3 0-0.4-0.1-0.1 0-0.2 0.1-0.2 0.1-0.4 0.1 0 0.1-0.3 0.2l-0.7 0.7q-0.2 0.5-0.5 0.7 0.1 0 0.1 0.1-0.2 0-0.3 0.3h0.1q-0.2 0.3-0.2 0.5-0.2 0.6-0.3 0.7 0 0.1 0 0.2l-0.1 0.9q0.1 0 0.1 0.1 0 0.1 0 0.4v0.3q0 0.1 0 0.3 0 0.2 0 0.4 0 0 0.2 0.3 0.2 0.4 0.2 0.6-0.1 0-0.1 0.1 0 0.1 0 0.3 0.1 0.1 0.1 0.3 0 0.2 0.1 0.3 0 0 0.1 0 0.2 0 0.2 0.2l0.1 0.2q0.1 0.3 0.3 0.6 0.2 0.2 0.4 0.5v0.1q0 0.1 0 0.3 0.1 0.1 0.2 0.4 0-0.1 0.1-0.1 0.1 0 0 0.1 0 0.1 0.1 0.2h-0.1q0.1 0.1 0.2 0.3 0.1 0.1 0.2 0.3h0.1 0.1q0 0 0.1 0 0.1-0.1 0.4-0.2 0.3-0.1 0.7-0.1h0.3q0 0 0.1 0.1 0.1 0 0.1-0.1h0.2q0 0 0.1 0.2l0.1-0.1q0.4 0.6 0.4 0.8l-0.2 0.5h-0.1q-0.1-0.1-0.6-0.2-0.3 0-0.5 0-0.2 0-0.3 0.1l-0.1-0.1v0.2h0.1q0.1 0 0.1 0.2 0.1 0.1 0.3 0.4 0.2 0.1 0.5 0.3l0.1 0.2q0.1 0.2 0.4 0.2zm-4.5 2.9q0 0 0.1-0.1 0.1-0.1 0.2-0.1 0 0 0.1 0.1 0.1 0 0.1 0 0.1-0.1 0.3-0.2 0.1 0.1 0.1 0.1 0.1 0 0.2 0 0 0 0.1-0.1 0.1-0.1 0.1-0.1 0 0 0.1 0 0.1 0 0.2-0.1 0.2 0 0.6-0.3 0.4-0.3 0.8-0.4 0.1-0.2 0.4-0.5l0.1 0.1q0.1-0.2 0.5-0.5v-0.2q-0.3-0.2-0.5-0.2 0-0.1 0-0.1 0-0.1 0-0.2-0.1 0-0.2-0.1-0.1 0-0.2-0.1-0.3-0.5-1.1-1.1-0.1 0.1-0.1 0.1 0 0 0 0h-0.1q0 0-0.1 0-0.1 0.1-0.2 0.1 0 0.1-0.1 0.1-0.2 0.1-0.6 0.3-0.1 0.1-0.3 0.3-0.3 0.2-0.9 0.6l-0.1 0.3-0.1 0.1q-0.1 0-0.1 0.2-0.1 0.1-0.2 0.3l-0.2-0.1v0.1q-0.1 0.1-0.1 0.5 0 0.1 0 0.1l0.3 0.8h0.1q0.1 0 0.2 0h0.2q0.1 0.2 0.4 0.3zm11.1 0.4l-0.2 0.1q-0.1 0-0.1-0.2-0.1 0-0.1 0.1h-0.2l-0.1-0.2q0 0 0 0 0 0-0.1 0h-0.1q-0.2-0.1-0.4-0.4-0.2-0.3-0.2-0.6 0-0.1-0.1-0.1v-0.2q0.1-0.1 0.1-0.6l0.2-0.1v-0.2h-0.1l0.1-0.2 0.4-1 0.3-0.4v-0.1q0.4-0.3 0.5-0.6 0.2 0 0.2-0.1 0.4-0.1 0.3-0.4 0.1-0.1 0.1-0.1 0 0 0 0 0.1 0 0.2 0.1 0.1 0 0.1 0 0.1 0 0.1 0 0.1 0 0.1 0 0.1 0.1 0.2 0.1 0.1 0 0.3-0.1 0 0 0 0.1 0.1 0 0.1 0.1 0 0.1-0.2 0.3l0.1 0.1q0 0.2-0.4 0.8-0.4 0.4-0.5 0.5-0.1 0-0.1 0.1 0 0.1-0.1 0.1h-0.1-0.1l-0.3 0.4q0 0.1-0.3 0.5-0.1 0.1-0.1 0.1-0.1-0.1-0.1 0v0.2q0.2 0.3 0.2 0.4-0.1 0.2-0.1 0.2 0 0 0.2 0.3-0.1 0-0.1 0.2 0.3 0.1 0.8 0.4h0.1q0.1 0 0.2-0.1 0 0 0 0 0.1 0 0.1 0 0 0 0.2-0.1 0.1-0.2 0.1-0.2 0.1 0 0.1 0 0 0.1 0 0.1 0 0 0.1-0.1 0.1 0 0.2 0v-0.1q0 0 0 0 0 0 0.2 0.1v-0.1q0.1-0.1 0.2-0.2 0.2 0 0.3-0.1 0.2 0 0.2-0.1h0.2q0 0 0.1 0 0.3 0 0.4-0.4l0.2-0.2q0 0 0 0.1 0.2-0.2 0.3-0.2 0 0 0 0.1 0.1 0 0.1 0 0.1 0 0.2-0.1 0.1-0.1 0.1-0.1 0.1-0.1 0.2-0.2 0.1 0 0.2-0.2l0.2 0.1q-0.1 0 0.7-0.6 0.3-0.1 0.3-0.2 0.2 0 0.3-0.1v-0.1l0.5-0.2v0.2h-0.2q0 0 0 0.2l-0.8 0.6q-0.1 0-0.1-0.1 0 0-0.3 0.4-0.1 0.1-0.3 0.1-0.4 0.4-0.3 0.3 0 0 0 0 0 0-0.1 0 0 0 0 0.1-0.2 0-0.4 0.3-0.1 0-0.1 0-0.1 0-0.2 0-0.1 0.1-0.3 0.3-0.2 0.1-0.4 0.3h-0.2q-0.3 0.3-0.4 0.3h-0.1q0-0.1 0-0.1-0.1 0-0.3 0.2-0.2 0.1-0.3 0.1 0 0-0.1 0 0 0-0.2 0.1-0.2 0.1-0.3 0.1 0 0-0.1 0 0 0-0.1 0 0 0-0.1 0.1-0.4 0.1-0.2 0.1-0.1 0-0.3 0-0.1 0-0.2 0zm6.6-3.7q0 0 0 0 0-0.1-0.1-0.1l0.5-0.5q0.2 0 0.2 0 0 0.2-0.3 0.4-0.2 0.2-0.3 0.2zm-4.4-2.7q-0.3 0-0.8-0.4-0.4-0.4-0.4-0.6 0.4-0.2 0.9-0.4 0.5-0.3 1.1-0.5-0.1 0.3-0.4 0.6l0.1 0.2v0.2l-0.2 0.2q0 0.7-0.3 0.7zm6.8 6.6q0.1 0 0-0.1-0.1 0.1-0.3 0.1-0.1 0-0.2-0.1-0.1 0-0.2 0 0 0-0.2 0-0.1 0-0.1 0-0.1 0-0.2 0-0.2-0.1-0.3-0.1 0-0.4-0.7-0.3v-0.1q0-0.2-0.1-0.4-0.2-0.1-0.2-0.4-0.1 0-0.2-0.1 0-0.2 0-0.5 0 0 0-0.2 0.1 0 0-0.1 0-0.1 0.1-0.6 0-0.2 0-0.3 0.1-0.1 0.1-0.1-0.2-0.2-0.2-0.3l0.1-0.3q0 0.1 0.2 0.1h0.2q0-0.1 0.1-0.2 0.1-0.2 0.2-0.3 0.2 0 0.4-0.4v-0.1q0-0.1 0-0.1 0 0 0.1 0 0 0 0 0 0 0-0.1 0 0.1 0 0.1 0 0.1 0 0.2-0.1 0.1-0.1 0.3-0.3 0.1-0.1 0.4-0.3 0.4-0.3 0.4-0.3 0.1 0 0.3-0.2 0.1 0 0.1 0.1 0 0 0 0 0.1 0 0.6-0.3-0.1 0.1 0 0.1h0.3q0.2-0.1 0.2-0.1 0.3 0 0.8 0.4 0 0.1 0.1 0.1v0.5q-0.1 0-0.2-0.1l-0.1 0.3q0.1 0.2 0.1 0.2 0 0.1-0.3 0.6v0.3q-0.1 0-0.2 0-0.6 0.4-0.7 0.4-0.1 0-0.1 0-0.1 0-0.4 0.1 0 0-0.1 0.1 0 0.1-0.1 0.1h-0.1q0 0 0 0-0.1 0-0.4 0.1-0.2 0.1-0.3 0.1-0.1 0-0.1 0l-0.1 0.1h-0.2q-0.2 0-0.2-0.1h-0.5q0 0.1-0.1 0.4 0 0.3 0 0.3 0 0.1 0.2 0.5 0 0 0.1 0.2 0.1 0.1 0.3 0.2 0.1 0.2 0.2 0.3 0.1 0 0.2 0 0 0 0.2 0.1l0.1 0.1q0.1-0.1 0.3 0l0.1 0.1q0.2 0 0.2 0 0 0 0 0 0 0 0 0 0 0.1 0.1 0.1 0 0 0-0.1 0.1-0.1 0.1-0.1h0.1q0 0.1 0 0.1 0.1 0 0.3-0.2 0.1 0.1 0.2 0v0.1 0.1q-0.1 0-0.2 0.1-0.1 0.1-0.2 0.1v0.2q0 0 0.1 0 0.6 0 0.9-0.3 0.1 0 0.1 0 0.1 0 0.1 0 0 0 0 0h0.2q0.1-0.1 0.2-0.2 0.1-0.2 0.3-0.2h0.1l0.1-0.2h0.1q0.1 0 0.3 0 0 0 0-0.1 0 0 0.1 0 0.3-0.1 0.8-0.6h0.1l0.6-0.4q0-0.1 0.1-0.2 0 0 0.1 0.1l0.3-0.5q0.1 0 0.2-0.1l0.1 0.1-0.2 0.3q-0.2 0.2-0.5 0.5-0.4 0.2-0.7 0.6-0.3 0-0.3 0.1-0.3 0.2-0.4 0.3l-0.1-0.1q0 0.1-0.2 0.2-0.1 0.1-0.5 0.3-0.1 0.1-0.2 0.2-0.1 0.1-0.3 0.1 0 0 0 0-0.2 0-0.3 0.1-0.1 0.1-0.1 0.1-0.1 0-0.1 0-0.5 0.2-0.6 0.2h-0.1l-0.5 0.1q0 0 0 0 0-0.1 0-0.1l-0.1 0.1q0 0-0.1 0.1 0 0-0.1 0 0 0 0 0zm-0.8-3.4q0-0.1 0.1-0.1 0 0 0 0h0.1q0 0 0.1-0.1 0.2-0.1 0.2-0.1 0 0 0.1 0 0.1 0.1 0.1 0.1-0.1 0 0.2-0.3l0.1 0.1q0.7-0.5 0.7-0.9 0-0.4-0.4-0.5-0.4-0.1-0.8-0.2 0 0-0.1 0-0.2 0.3-0.4 0.4-0.1 0-0.4 0.4 0 0-0.2 0.3-0.1 0.2-0.1 0.4-0.1 0.1-0.1 0.2 0.2 0.2 0.3 0.2 0.1 0 0.1 0 0.2 0 0.4 0.1zm2.9-1.5q0 0 0 0 0 0 0 0zm3.4 1.7v-0.1q0-0.2 0.2-0.2 0 0.1-0.2 0.3zm-2 4.1l-1 0.2q-0.1 0-0.2-0.2 0-0.1 0-0.4 0 0 0-0.1 0 0 0.1-0.1 0-0.1 0.1-0.2 0 0 0.1 0 0.1 0 0.4-0.1 0-0.1 0-0.1 0.1 0 0.2 0 0 0 0.1 0 0.2-0.1 0.2-0.1h0.1q0.2 0 0.1-0.1 0.1-0.1 0.2-0.1 0.2-0.1 0.3-0.2h0.1l0.1-0.1q0.2 0 0.4-0.1 0.2-0.1 0.3-0.1 0 0 0.1 0.1h0.1q0.1-0.1 0.3-0.4 0.2 0.1 0.2 0.1 0 0 0.4-0.2 0.1 0 0.3-0.1 0.1-0.1 0.6-0.4l-0.3-0.7q0-0.1 0-0.1 0.1-0.1 0-0.3 0-0.1-0.2-0.1l0.1-0.1q-0.2-0.2-0.2-0.4 0-0.1-0.2 0l-0.1-0.2q0 0 0.1-0.2-0.1-0.1-0.2-0.1l-0.1-0.3q0-0.1 0.1-0.2-0.1-0.1-0.2-0.2l0.1-0.6q0 0 0.1-0.2 0-0.1 0.1-0.4l0.6-0.9q0 0 0.4-0.4 0.6-0.6 0.8-0.6h0.1q0 0 0 0 0.3-0.1 0.4-0.2 0.2-0.2 0.4-0.3h0.1q0.1 0 0.1-0.1h0.1l0.1-0.1q0 0.1 0 0.1 0 0 0-0.1 0 0 0.1 0-0.1 0 0-0.1v0.1q0 0 0 0h0.3q0 0 0-0.2 0 0 0.1 0 0 0 0.1 0 0.2-0.1 0.3-0.1 0.1 0 0.1 0 0.1 0.1 0.2 0.1 0 0 0.1 0 0.1 0 0.4 0.2 0.3 0.2 0.3 0.3v0.2l-0.4 0.1q0 0-0.2 0-0.1-0.3-0.2-0.3-0.1 0.1-0.1 0.1-0.1 0-0.2 0-0.1 0-0.2-0.1 0 0 0-0.1-0.2 0.2-0.4 0.3l-0.2-0.1q-0.1 0-0.3 0.1-0.2 0.1-0.2 0-0.1 0.3-0.5 0.5l-0.3 0.7q-0.5 0.2-0.5 0.6 0 0.1 0.1 0.3 0 0-0.1 0.2 0 0-0.1 0.1-0.1 0.1-0.1 0.2 0 0.2 0.1 0.1 0.1 0.1 0.1 0.4 0 0.1-0.1 0.2 0.1 0 0.1 0.1 0.1 0 0.2 0.2 0.1 0.1 0 0.2 0 0 0.1 0.2h0.1q0.2 0.2 0.2 0.5 0.3 0.3 0.3 0.5v0.3q-0.1 0-0.1 0.1l0.1 0.1q0.1-0.1 0.3-0.2 0.1-0.1 0.3-0.2 0 0 0.1 0.1 0 0 0-0.1 0.1 0 0.1-0.1 0.3-0.1 0.9-0.6h0.1q0.3-0.1 0.7-0.7 0.1 0 0.1 0.1 0-0.1 0.2-0.3 0.1 0 0.2 0.1v0.3q0 0-0.2 0.1-0.1 0-0.5 0.4-0.1 0-0.5 0.3l-0.1 0.1q-0.1 0.1-0.3 0.2-0.1 0.1-0.4 0.3-0.1 0-0.3 0.2-0.2 0.1-0.4 0.2 0 0.1 0 0.1 0 0 0 0.1-0.1 0-0.1-0.1 0 0.1-0.1 0.1-0.1 0.1-0.1 0.2 0 0.1 0 0.2 0.1 0 0.1 0l-0.1 0.7q-0.1 0.2-0.4 0.5-0.4 0.3-0.5 0.4-0.1 0.2-0.2 0.2 0 0-0.1 0 0 0-0.3 0.3-0.3 0.3-0.4 0.3 0-0.1-0.1-0.1-0.1 0.1-0.4 0.4l-0.1-0.1q0 0.1-0.7 0.1 0 0-0.2-0.1-0.2-0.2-0.2-0.2v-0.2q0-0.1 0.4-0.3 0 0 0.1 0.1 0 0 0.1 0l0.6 0.1h0.1q0.1 0 0.1 0 0-0.1 0.1-0.1 0.1 0 0.8-0.6 0-0.1 0-0.2 0 0 0 0.1 0.2-0.1 0.2-0.3 0-0.2 0-0.3 0-0.1 0 0 0-0.1 0-0.2v-0.2q-0.1-0.1-0.2 0 0 0 0 0 0 0-0.1 0 0 0 0 0-0.1-0.1-0.1 0-0.2 0.1-0.3 0.3-0.1 0.1-0.3 0.3l-0.1-0.1h-0.1q0.1 0 0 0.1 0 0-0.1 0 0 0-0.1-0.1 0.1 0.1 0 0.2l-0.2 0.1-0.4 0.3q0-0.1-0.1-0.1-0.1 0.1-0.2 0.1-0.1 0-0.1 0l-0.1 0.1q-0.2 0-0.3 0.1 0.2 0.1-0.2 0.1 0 0 0 0-0.3 0-0.1 0.2h-0.1q0 0 0 0 0 0 0.1 0.1 0 0 0 0 0 0-0.1 0l0.1 0.1v0.1q-0.2 0-0.4 0.1-0.1 0-0.2 0.1z"/></svg>